<mxfile host="65bd71144e" pages="5">
    <diagram id="C5RBs43oDa-KdzZeNtuy" name="User">
        <mxGraphModel dx="957" dy="614" grid="1" gridSize="10" guides="1" tooltips="1" connect="1" arrows="1" fold="1" page="1" pageScale="1" pageWidth="827" pageHeight="1169" math="0" shadow="0">
            <root>
                <mxCell id="WIyWlLk6GJQsqaUBKTNV-0"/>
                <mxCell id="WIyWlLk6GJQsqaUBKTNV-1" parent="WIyWlLk6GJQsqaUBKTNV-0"/>
                <mxCell id="zkfFHV4jXpPFQw0GAbJ--0" value="User" style="swimlane;fontStyle=2;align=center;verticalAlign=top;childLayout=stackLayout;horizontal=1;startSize=26;horizontalStack=0;resizeParent=1;resizeLast=0;collapsible=1;marginBottom=0;rounded=0;shadow=0;strokeWidth=1;" parent="WIyWlLk6GJQsqaUBKTNV-1" vertex="1">
                    <mxGeometry x="120" y="140" width="160" height="216" as="geometry">
                        <mxRectangle x="160" y="10" width="160" height="26" as="alternateBounds"/>
                    </mxGeometry>
                </mxCell>
                <mxCell id="bVFfhq9ek1jBS3sNkwcP-19" value="id: Int" style="text;align=left;verticalAlign=top;spacingLeft=4;spacingRight=4;overflow=hidden;rotatable=0;points=[[0,0.5],[1,0.5]];portConstraint=eastwest;" parent="zkfFHV4jXpPFQw0GAbJ--0" vertex="1">
                    <mxGeometry y="26" width="160" height="26" as="geometry"/>
                </mxCell>
                <mxCell id="bVFfhq9ek1jBS3sNkwcP-18" value="name: str" style="text;align=left;verticalAlign=top;spacingLeft=4;spacingRight=4;overflow=hidden;rotatable=0;points=[[0,0.5],[1,0.5]];portConstraint=eastwest;" parent="zkfFHV4jXpPFQw0GAbJ--0" vertex="1">
                    <mxGeometry y="52" width="160" height="26" as="geometry"/>
                </mxCell>
                <mxCell id="bVFfhq9ek1jBS3sNkwcP-17" value="email: str" style="text;align=left;verticalAlign=top;spacingLeft=4;spacingRight=4;overflow=hidden;rotatable=0;points=[[0,0.5],[1,0.5]];portConstraint=eastwest;" parent="zkfFHV4jXpPFQw0GAbJ--0" vertex="1">
                    <mxGeometry y="78" width="160" height="26" as="geometry"/>
                </mxCell>
                <mxCell id="hdNOc4NR6NcyTPvyVOLA-0" value="password: str" style="text;align=left;verticalAlign=top;spacingLeft=4;spacingRight=4;overflow=hidden;rotatable=0;points=[[0,0.5],[1,0.5]];portConstraint=eastwest;" parent="zkfFHV4jXpPFQw0GAbJ--0" vertex="1">
                    <mxGeometry y="104" width="160" height="26" as="geometry"/>
                </mxCell>
                <mxCell id="zkfFHV4jXpPFQw0GAbJ--1" value="typeUser: TypeUser" style="text;align=left;verticalAlign=top;spacingLeft=4;spacingRight=4;overflow=hidden;rotatable=0;points=[[0,0.5],[1,0.5]];portConstraint=eastwest;" parent="zkfFHV4jXpPFQw0GAbJ--0" vertex="1">
                    <mxGeometry y="130" width="160" height="26" as="geometry"/>
                </mxCell>
                <mxCell id="zkfFHV4jXpPFQw0GAbJ--2" value="reviews: List&lt;Review&gt;" style="text;align=left;verticalAlign=top;spacingLeft=4;spacingRight=4;overflow=hidden;rotatable=0;points=[[0,0.5],[1,0.5]];portConstraint=eastwest;rounded=0;shadow=0;html=0;" parent="zkfFHV4jXpPFQw0GAbJ--0" vertex="1">
                    <mxGeometry y="156" width="160" height="26" as="geometry"/>
                </mxCell>
                <mxCell id="zkfFHV4jXpPFQw0GAbJ--3" value="stars: int" style="text;align=left;verticalAlign=top;spacingLeft=4;spacingRight=4;overflow=hidden;rotatable=0;points=[[0,0.5],[1,0.5]];portConstraint=eastwest;rounded=0;shadow=0;html=0;" parent="zkfFHV4jXpPFQw0GAbJ--0" vertex="1">
                    <mxGeometry y="182" width="160" height="26" as="geometry"/>
                </mxCell>
                <mxCell id="zkfFHV4jXpPFQw0GAbJ--4" value="" style="line;html=1;strokeWidth=1;align=left;verticalAlign=middle;spacingTop=-1;spacingLeft=3;spacingRight=3;rotatable=0;labelPosition=right;points=[];portConstraint=eastwest;" parent="zkfFHV4jXpPFQw0GAbJ--0" vertex="1">
                    <mxGeometry y="208" width="160" height="8" as="geometry"/>
                </mxCell>
                <mxCell id="bVFfhq9ek1jBS3sNkwcP-23" value="TypeUser&amp;lt;&amp;lt;Enum&amp;gt;&amp;gt;" style="swimlane;fontStyle=0;childLayout=stackLayout;horizontal=1;startSize=26;fillColor=none;horizontalStack=0;resizeParent=1;resizeParentMax=0;resizeLast=0;collapsible=1;marginBottom=0;whiteSpace=wrap;html=1;" parent="WIyWlLk6GJQsqaUBKTNV-1" vertex="1">
                    <mxGeometry x="360" y="220" width="140" height="104" as="geometry"/>
                </mxCell>
                <mxCell id="bVFfhq9ek1jBS3sNkwcP-24" value="OWNER" style="text;strokeColor=none;fillColor=none;align=left;verticalAlign=top;spacingLeft=4;spacingRight=4;overflow=hidden;rotatable=0;points=[[0,0.5],[1,0.5]];portConstraint=eastwest;whiteSpace=wrap;html=1;" parent="bVFfhq9ek1jBS3sNkwcP-23" vertex="1">
                    <mxGeometry y="26" width="140" height="26" as="geometry"/>
                </mxCell>
                <mxCell id="bVFfhq9ek1jBS3sNkwcP-25" value="CLIENT" style="text;strokeColor=none;fillColor=none;align=left;verticalAlign=top;spacingLeft=4;spacingRight=4;overflow=hidden;rotatable=0;points=[[0,0.5],[1,0.5]];portConstraint=eastwest;whiteSpace=wrap;html=1;" parent="bVFfhq9ek1jBS3sNkwcP-23" vertex="1">
                    <mxGeometry y="52" width="140" height="26" as="geometry"/>
                </mxCell>
                <mxCell id="bVFfhq9ek1jBS3sNkwcP-26" value="ADMIN" style="text;strokeColor=none;fillColor=none;align=left;verticalAlign=top;spacingLeft=4;spacingRight=4;overflow=hidden;rotatable=0;points=[[0,0.5],[1,0.5]];portConstraint=eastwest;whiteSpace=wrap;html=1;" parent="bVFfhq9ek1jBS3sNkwcP-23" vertex="1">
                    <mxGeometry y="78" width="140" height="26" as="geometry"/>
                </mxCell>
                <mxCell id="bVFfhq9ek1jBS3sNkwcP-57" style="edgeStyle=orthogonalEdgeStyle;rounded=0;orthogonalLoop=1;jettySize=auto;html=1;exitX=1;exitY=0.5;exitDx=0;exitDy=0;entryX=0;entryY=0.25;entryDx=0;entryDy=0;" parent="WIyWlLk6GJQsqaUBKTNV-1" source="zkfFHV4jXpPFQw0GAbJ--1" target="bVFfhq9ek1jBS3sNkwcP-23" edge="1">
                    <mxGeometry relative="1" as="geometry"/>
                </mxCell>
            </root>
        </mxGraphModel>
    </diagram>
    <diagram id="2muZXdNiuO6mR1vvM-ky" name="Review">
        <mxGraphModel dx="957" dy="614" grid="1" gridSize="10" guides="1" tooltips="1" connect="1" arrows="1" fold="1" page="1" pageScale="1" pageWidth="850" pageHeight="1100" math="0" shadow="0">
            <root>
                <mxCell id="0"/>
                <mxCell id="1" parent="0"/>
                <mxCell id="WpSXMGwJNNI3bN4ONeWt-1" value="User" style="swimlane;fontStyle=2;align=center;verticalAlign=top;childLayout=stackLayout;horizontal=1;startSize=26;horizontalStack=0;resizeParent=1;resizeLast=0;collapsible=1;marginBottom=0;rounded=0;shadow=0;strokeWidth=1;" parent="1" vertex="1">
                    <mxGeometry x="160" y="30" width="160" height="216" as="geometry">
                        <mxRectangle x="160" y="10" width="160" height="26" as="alternateBounds"/>
                    </mxGeometry>
                </mxCell>
                <mxCell id="WpSXMGwJNNI3bN4ONeWt-2" value="id: Int" style="text;align=left;verticalAlign=top;spacingLeft=4;spacingRight=4;overflow=hidden;rotatable=0;points=[[0,0.5],[1,0.5]];portConstraint=eastwest;" parent="WpSXMGwJNNI3bN4ONeWt-1" vertex="1">
                    <mxGeometry y="26" width="160" height="26" as="geometry"/>
                </mxCell>
                <mxCell id="WpSXMGwJNNI3bN4ONeWt-3" value="name: str" style="text;align=left;verticalAlign=top;spacingLeft=4;spacingRight=4;overflow=hidden;rotatable=0;points=[[0,0.5],[1,0.5]];portConstraint=eastwest;" parent="WpSXMGwJNNI3bN4ONeWt-1" vertex="1">
                    <mxGeometry y="52" width="160" height="26" as="geometry"/>
                </mxCell>
                <mxCell id="WpSXMGwJNNI3bN4ONeWt-4" value="email: str" style="text;align=left;verticalAlign=top;spacingLeft=4;spacingRight=4;overflow=hidden;rotatable=0;points=[[0,0.5],[1,0.5]];portConstraint=eastwest;" parent="WpSXMGwJNNI3bN4ONeWt-1" vertex="1">
                    <mxGeometry y="78" width="160" height="26" as="geometry"/>
                </mxCell>
                <mxCell id="_36YJTv7J8MWDlUspp_i-1" value="password: str" style="text;align=left;verticalAlign=top;spacingLeft=4;spacingRight=4;overflow=hidden;rotatable=0;points=[[0,0.5],[1,0.5]];portConstraint=eastwest;" parent="WpSXMGwJNNI3bN4ONeWt-1" vertex="1">
                    <mxGeometry y="104" width="160" height="26" as="geometry"/>
                </mxCell>
                <mxCell id="WpSXMGwJNNI3bN4ONeWt-5" value="typeUser: TypeUser" style="text;align=left;verticalAlign=top;spacingLeft=4;spacingRight=4;overflow=hidden;rotatable=0;points=[[0,0.5],[1,0.5]];portConstraint=eastwest;" parent="WpSXMGwJNNI3bN4ONeWt-1" vertex="1">
                    <mxGeometry y="130" width="160" height="26" as="geometry"/>
                </mxCell>
                <mxCell id="WpSXMGwJNNI3bN4ONeWt-6" value="reviews: List&lt;Review&gt;" style="text;align=left;verticalAlign=top;spacingLeft=4;spacingRight=4;overflow=hidden;rotatable=0;points=[[0,0.5],[1,0.5]];portConstraint=eastwest;rounded=0;shadow=0;html=0;" parent="WpSXMGwJNNI3bN4ONeWt-1" vertex="1">
                    <mxGeometry y="156" width="160" height="26" as="geometry"/>
                </mxCell>
                <mxCell id="WpSXMGwJNNI3bN4ONeWt-7" value="stars: int" style="text;align=left;verticalAlign=top;spacingLeft=4;spacingRight=4;overflow=hidden;rotatable=0;points=[[0,0.5],[1,0.5]];portConstraint=eastwest;rounded=0;shadow=0;html=0;" parent="WpSXMGwJNNI3bN4ONeWt-1" vertex="1">
                    <mxGeometry y="182" width="160" height="26" as="geometry"/>
                </mxCell>
                <mxCell id="WpSXMGwJNNI3bN4ONeWt-8" value="" style="line;html=1;strokeWidth=1;align=left;verticalAlign=middle;spacingTop=-1;spacingLeft=3;spacingRight=3;rotatable=0;labelPosition=right;points=[];portConstraint=eastwest;" parent="WpSXMGwJNNI3bN4ONeWt-1" vertex="1">
                    <mxGeometry y="208" width="160" height="8" as="geometry"/>
                </mxCell>
                <mxCell id="WpSXMGwJNNI3bN4ONeWt-9" value="House" style="swimlane;fontStyle=0;align=center;verticalAlign=top;childLayout=stackLayout;horizontal=1;startSize=26;horizontalStack=0;resizeParent=1;resizeLast=0;collapsible=1;marginBottom=0;rounded=0;shadow=0;strokeWidth=1;" parent="1" vertex="1">
                    <mxGeometry x="320" y="340" width="160" height="242" as="geometry">
                        <mxRectangle x="130" y="380" width="160" height="26" as="alternateBounds"/>
                    </mxGeometry>
                </mxCell>
                <mxCell id="WpSXMGwJNNI3bN4ONeWt-10" value="id: int" style="text;align=left;verticalAlign=top;spacingLeft=4;spacingRight=4;overflow=hidden;rotatable=0;points=[[0,0.5],[1,0.5]];portConstraint=eastwest;" parent="WpSXMGwJNNI3bN4ONeWt-9" vertex="1">
                    <mxGeometry y="26" width="160" height="26" as="geometry"/>
                </mxCell>
                <mxCell id="WpSXMGwJNNI3bN4ONeWt-11" value="adress: str" style="text;align=left;verticalAlign=top;spacingLeft=4;spacingRight=4;overflow=hidden;rotatable=0;points=[[0,0.5],[1,0.5]];portConstraint=eastwest;rounded=0;shadow=0;html=0;" parent="WpSXMGwJNNI3bN4ONeWt-9" vertex="1">
                    <mxGeometry y="52" width="160" height="26" as="geometry"/>
                </mxCell>
                <mxCell id="WpSXMGwJNNI3bN4ONeWt-12" value="description: str" style="text;align=left;verticalAlign=top;spacingLeft=4;spacingRight=4;overflow=hidden;rotatable=0;points=[[0,0.5],[1,0.5]];portConstraint=eastwest;" parent="WpSXMGwJNNI3bN4ONeWt-9" vertex="1">
                    <mxGeometry y="78" width="160" height="26" as="geometry"/>
                </mxCell>
                <mxCell id="WpSXMGwJNNI3bN4ONeWt-13" value="owner: User" style="text;align=left;verticalAlign=top;spacingLeft=4;spacingRight=4;overflow=hidden;rotatable=0;points=[[0,0.5],[1,0.5]];portConstraint=eastwest;" parent="WpSXMGwJNNI3bN4ONeWt-9" vertex="1">
                    <mxGeometry y="104" width="160" height="26" as="geometry"/>
                </mxCell>
                <mxCell id="WpSXMGwJNNI3bN4ONeWt-14" value="reviews: List&lt;Review&gt;" style="text;align=left;verticalAlign=top;spacingLeft=4;spacingRight=4;overflow=hidden;rotatable=0;points=[[0,0.5],[1,0.5]];portConstraint=eastwest;" parent="WpSXMGwJNNI3bN4ONeWt-9" vertex="1">
                    <mxGeometry y="130" width="160" height="26" as="geometry"/>
                </mxCell>
                <mxCell id="WpSXMGwJNNI3bN4ONeWt-15" value="starts:int" style="text;align=left;verticalAlign=top;spacingLeft=4;spacingRight=4;overflow=hidden;rotatable=0;points=[[0,0.5],[1,0.5]];portConstraint=eastwest;" parent="WpSXMGwJNNI3bN4ONeWt-9" vertex="1">
                    <mxGeometry y="156" width="160" height="26" as="geometry"/>
                </mxCell>
                <mxCell id="WpSXMGwJNNI3bN4ONeWt-16" value="isAvalible: bool" style="text;align=left;verticalAlign=top;spacingLeft=4;spacingRight=4;overflow=hidden;rotatable=0;points=[[0,0.5],[1,0.5]];portConstraint=eastwest;fontStyle=0" parent="WpSXMGwJNNI3bN4ONeWt-9" vertex="1">
                    <mxGeometry y="182" width="160" height="26" as="geometry"/>
                </mxCell>
                <mxCell id="1sTVXt7kQLik4DTkXhIZ-1" value="images: List&lt;Image&gt;" style="text;align=left;verticalAlign=top;spacingLeft=4;spacingRight=4;overflow=hidden;rotatable=0;points=[[0,0.5],[1,0.5]];portConstraint=eastwest;fontStyle=0" parent="WpSXMGwJNNI3bN4ONeWt-9" vertex="1">
                    <mxGeometry y="208" width="160" height="26" as="geometry"/>
                </mxCell>
                <mxCell id="WpSXMGwJNNI3bN4ONeWt-17" value="" style="line;html=1;strokeWidth=1;align=left;verticalAlign=middle;spacingTop=-1;spacingLeft=3;spacingRight=3;rotatable=0;labelPosition=right;points=[];portConstraint=eastwest;" parent="WpSXMGwJNNI3bN4ONeWt-9" vertex="1">
                    <mxGeometry y="234" width="160" height="8" as="geometry"/>
                </mxCell>
                <mxCell id="WpSXMGwJNNI3bN4ONeWt-18" value="Review" style="swimlane;fontStyle=0;align=center;verticalAlign=top;childLayout=stackLayout;horizontal=1;startSize=26;horizontalStack=0;resizeParent=1;resizeLast=0;collapsible=1;marginBottom=0;rounded=0;shadow=0;strokeWidth=1;" parent="1" vertex="1">
                    <mxGeometry x="610" y="50" width="160" height="166" as="geometry">
                        <mxRectangle x="550" y="140" width="160" height="26" as="alternateBounds"/>
                    </mxGeometry>
                </mxCell>
                <mxCell id="WpSXMGwJNNI3bN4ONeWt-19" value="id:int" style="text;align=left;verticalAlign=top;spacingLeft=4;spacingRight=4;overflow=hidden;rotatable=0;points=[[0,0.5],[1,0.5]];portConstraint=eastwest;" parent="WpSXMGwJNNI3bN4ONeWt-18" vertex="1">
                    <mxGeometry y="26" width="160" height="26" as="geometry"/>
                </mxCell>
                <mxCell id="WpSXMGwJNNI3bN4ONeWt-20" value="userWriter: User" style="text;align=left;verticalAlign=top;spacingLeft=4;spacingRight=4;overflow=hidden;rotatable=0;points=[[0,0.5],[1,0.5]];portConstraint=eastwest;rounded=0;shadow=0;html=0;" parent="WpSXMGwJNNI3bN4ONeWt-18" vertex="1">
                    <mxGeometry y="52" width="160" height="26" as="geometry"/>
                </mxCell>
                <mxCell id="WpSXMGwJNNI3bN4ONeWt-21" value="comment: str" style="text;align=left;verticalAlign=top;spacingLeft=4;spacingRight=4;overflow=hidden;rotatable=0;points=[[0,0.5],[1,0.5]];portConstraint=eastwest;rounded=0;shadow=0;html=0;" parent="WpSXMGwJNNI3bN4ONeWt-18" vertex="1">
                    <mxGeometry y="78" width="160" height="26" as="geometry"/>
                </mxCell>
                <mxCell id="WpSXMGwJNNI3bN4ONeWt-22" value="dateTime: LocalDateTime" style="text;align=left;verticalAlign=top;spacingLeft=4;spacingRight=4;overflow=hidden;rotatable=0;points=[[0,0.5],[1,0.5]];portConstraint=eastwest;rounded=0;shadow=0;html=0;" parent="WpSXMGwJNNI3bN4ONeWt-18" vertex="1">
                    <mxGeometry y="104" width="160" height="26" as="geometry"/>
                </mxCell>
                <mxCell id="WpSXMGwJNNI3bN4ONeWt-23" value="stars: int" style="text;align=left;verticalAlign=top;spacingLeft=4;spacingRight=4;overflow=hidden;rotatable=0;points=[[0,0.5],[1,0.5]];portConstraint=eastwest;" parent="WpSXMGwJNNI3bN4ONeWt-18" vertex="1">
                    <mxGeometry y="130" width="160" height="26" as="geometry"/>
                </mxCell>
                <mxCell id="WpSXMGwJNNI3bN4ONeWt-24" value="" style="line;html=1;strokeWidth=1;align=left;verticalAlign=middle;spacingTop=-1;spacingLeft=3;spacingRight=3;rotatable=0;labelPosition=right;points=[];portConstraint=eastwest;" parent="WpSXMGwJNNI3bN4ONeWt-18" vertex="1">
                    <mxGeometry y="156" width="160" height="8" as="geometry"/>
                </mxCell>
                <mxCell id="WpSXMGwJNNI3bN4ONeWt-29" value="ReviewUser" style="swimlane;fontStyle=1;align=center;verticalAlign=top;childLayout=stackLayout;horizontal=1;startSize=26;horizontalStack=0;resizeParent=1;resizeParentMax=0;resizeLast=0;collapsible=1;marginBottom=0;whiteSpace=wrap;html=1;" parent="1" vertex="1">
                    <mxGeometry x="470" y="270" width="160" height="60" as="geometry"/>
                </mxCell>
                <mxCell id="WpSXMGwJNNI3bN4ONeWt-30" value="userReviewed: User" style="text;strokeColor=none;fillColor=none;align=left;verticalAlign=top;spacingLeft=4;spacingRight=4;overflow=hidden;rotatable=0;points=[[0,0.5],[1,0.5]];portConstraint=eastwest;whiteSpace=wrap;html=1;" parent="WpSXMGwJNNI3bN4ONeWt-29" vertex="1">
                    <mxGeometry y="26" width="160" height="26" as="geometry"/>
                </mxCell>
                <mxCell id="WpSXMGwJNNI3bN4ONeWt-31" value="" style="line;strokeWidth=1;fillColor=none;align=left;verticalAlign=middle;spacingTop=-1;spacingLeft=3;spacingRight=3;rotatable=0;labelPosition=right;points=[];portConstraint=eastwest;strokeColor=inherit;" parent="WpSXMGwJNNI3bN4ONeWt-29" vertex="1">
                    <mxGeometry y="52" width="160" height="8" as="geometry"/>
                </mxCell>
                <mxCell id="WpSXMGwJNNI3bN4ONeWt-32" value="ReviewHouse" style="swimlane;fontStyle=1;align=center;verticalAlign=top;childLayout=stackLayout;horizontal=1;startSize=26;horizontalStack=0;resizeParent=1;resizeParentMax=0;resizeLast=0;collapsible=1;marginBottom=0;whiteSpace=wrap;html=1;" parent="1" vertex="1">
                    <mxGeometry x="640" y="330" width="160" height="60" as="geometry"/>
                </mxCell>
                <mxCell id="WpSXMGwJNNI3bN4ONeWt-33" value="houseReviewed: House" style="text;strokeColor=none;fillColor=none;align=left;verticalAlign=top;spacingLeft=4;spacingRight=4;overflow=hidden;rotatable=0;points=[[0,0.5],[1,0.5]];portConstraint=eastwest;whiteSpace=wrap;html=1;" parent="WpSXMGwJNNI3bN4ONeWt-32" vertex="1">
                    <mxGeometry y="26" width="160" height="26" as="geometry"/>
                </mxCell>
                <mxCell id="WpSXMGwJNNI3bN4ONeWt-34" value="" style="line;strokeWidth=1;fillColor=none;align=left;verticalAlign=middle;spacingTop=-1;spacingLeft=3;spacingRight=3;rotatable=0;labelPosition=right;points=[];portConstraint=eastwest;strokeColor=inherit;" parent="WpSXMGwJNNI3bN4ONeWt-32" vertex="1">
                    <mxGeometry y="52" width="160" height="8" as="geometry"/>
                </mxCell>
                <mxCell id="WpSXMGwJNNI3bN4ONeWt-35" value="" style="endArrow=block;endSize=10;endFill=0;shadow=0;strokeWidth=1;rounded=0;curved=0;edgeStyle=elbowEdgeStyle;elbow=vertical;exitX=0.5;exitY=0;exitDx=0;exitDy=0;entryX=0.5;entryY=1;entryDx=0;entryDy=0;" parent="1" source="WpSXMGwJNNI3bN4ONeWt-32" target="WpSXMGwJNNI3bN4ONeWt-18" edge="1">
                    <mxGeometry width="160" relative="1" as="geometry">
                        <mxPoint x="731.6" y="433.4" as="sourcePoint"/>
                        <mxPoint x="700" y="240" as="targetPoint"/>
                        <Array as="points"/>
                    </mxGeometry>
                </mxCell>
                <mxCell id="WpSXMGwJNNI3bN4ONeWt-36" value="" style="endArrow=block;endSize=10;endFill=0;shadow=0;strokeWidth=1;rounded=0;curved=0;edgeStyle=elbowEdgeStyle;elbow=vertical;exitX=0.5;exitY=0;exitDx=0;exitDy=0;entryX=0.5;entryY=1;entryDx=0;entryDy=0;" parent="1" source="WpSXMGwJNNI3bN4ONeWt-29" target="WpSXMGwJNNI3bN4ONeWt-18" edge="1">
                    <mxGeometry width="160" relative="1" as="geometry">
                        <mxPoint x="730" y="438" as="sourcePoint"/>
                        <mxPoint x="610" y="320" as="targetPoint"/>
                        <Array as="points">
                            <mxPoint x="610" y="260"/>
                        </Array>
                    </mxGeometry>
                </mxCell>
                <mxCell id="WpSXMGwJNNI3bN4ONeWt-37" style="edgeStyle=orthogonalEdgeStyle;rounded=0;orthogonalLoop=1;jettySize=auto;html=1;exitX=0;exitY=0.5;exitDx=0;exitDy=0;entryX=1;entryY=0.5;entryDx=0;entryDy=0;" parent="1" source="WpSXMGwJNNI3bN4ONeWt-20" target="WpSXMGwJNNI3bN4ONeWt-2" edge="1">
                    <mxGeometry relative="1" as="geometry">
                        <Array as="points">
                            <mxPoint x="590" y="179"/>
                        </Array>
                    </mxGeometry>
                </mxCell>
                <mxCell id="WpSXMGwJNNI3bN4ONeWt-38" style="edgeStyle=orthogonalEdgeStyle;rounded=0;orthogonalLoop=1;jettySize=auto;html=1;exitX=0;exitY=0.5;exitDx=0;exitDy=0;entryX=1;entryY=0.5;entryDx=0;entryDy=0;" parent="1" source="WpSXMGwJNNI3bN4ONeWt-30" target="WpSXMGwJNNI3bN4ONeWt-2" edge="1">
                    <mxGeometry relative="1" as="geometry">
                        <Array as="points">
                            <mxPoint x="400" y="309"/>
                            <mxPoint x="400" y="69"/>
                        </Array>
                    </mxGeometry>
                </mxCell>
                <mxCell id="WpSXMGwJNNI3bN4ONeWt-39" style="edgeStyle=orthogonalEdgeStyle;rounded=0;orthogonalLoop=1;jettySize=auto;html=1;exitX=0;exitY=0.5;exitDx=0;exitDy=0;entryX=1;entryY=0.5;entryDx=0;entryDy=0;" parent="1" source="WpSXMGwJNNI3bN4ONeWt-33" target="WpSXMGwJNNI3bN4ONeWt-10" edge="1">
                    <mxGeometry relative="1" as="geometry"/>
                </mxCell>
            </root>
        </mxGraphModel>
    </diagram>
    <diagram id="CB12AHrlKfv7PW-3CJOV" name="Rent">
        <mxGraphModel dx="1042" dy="534" grid="1" gridSize="10" guides="1" tooltips="1" connect="1" arrows="1" fold="1" page="1" pageScale="1" pageWidth="850" pageHeight="1100" math="0" shadow="0">
            <root>
                <mxCell id="0"/>
                <mxCell id="1" parent="0"/>
                <mxCell id="Ab5QefLZsVJo5AJRmCkX-1" value="User" style="swimlane;fontStyle=2;align=center;verticalAlign=top;childLayout=stackLayout;horizontal=1;startSize=26;horizontalStack=0;resizeParent=1;resizeLast=0;collapsible=1;marginBottom=0;rounded=0;shadow=0;strokeWidth=1;" parent="1" vertex="1">
                    <mxGeometry x="120" y="140" width="160" height="216" as="geometry">
                        <mxRectangle x="160" y="10" width="160" height="26" as="alternateBounds"/>
                    </mxGeometry>
                </mxCell>
                <mxCell id="Ab5QefLZsVJo5AJRmCkX-2" value="id: Int" style="text;align=left;verticalAlign=top;spacingLeft=4;spacingRight=4;overflow=hidden;rotatable=0;points=[[0,0.5],[1,0.5]];portConstraint=eastwest;" parent="Ab5QefLZsVJo5AJRmCkX-1" vertex="1">
                    <mxGeometry y="26" width="160" height="26" as="geometry"/>
                </mxCell>
                <mxCell id="Ab5QefLZsVJo5AJRmCkX-3" value="name: str" style="text;align=left;verticalAlign=top;spacingLeft=4;spacingRight=4;overflow=hidden;rotatable=0;points=[[0,0.5],[1,0.5]];portConstraint=eastwest;" parent="Ab5QefLZsVJo5AJRmCkX-1" vertex="1">
                    <mxGeometry y="52" width="160" height="26" as="geometry"/>
                </mxCell>
                <mxCell id="Ab5QefLZsVJo5AJRmCkX-4" value="email: str" style="text;align=left;verticalAlign=top;spacingLeft=4;spacingRight=4;overflow=hidden;rotatable=0;points=[[0,0.5],[1,0.5]];portConstraint=eastwest;" parent="Ab5QefLZsVJo5AJRmCkX-1" vertex="1">
                    <mxGeometry y="78" width="160" height="26" as="geometry"/>
                </mxCell>
                <mxCell id="x98dyp_eHIBuah51IMJH-1" value="password: str" style="text;align=left;verticalAlign=top;spacingLeft=4;spacingRight=4;overflow=hidden;rotatable=0;points=[[0,0.5],[1,0.5]];portConstraint=eastwest;" vertex="1" parent="Ab5QefLZsVJo5AJRmCkX-1">
                    <mxGeometry y="104" width="160" height="26" as="geometry"/>
                </mxCell>
                <mxCell id="Ab5QefLZsVJo5AJRmCkX-5" value="typeUser: TypeUser" style="text;align=left;verticalAlign=top;spacingLeft=4;spacingRight=4;overflow=hidden;rotatable=0;points=[[0,0.5],[1,0.5]];portConstraint=eastwest;" parent="Ab5QefLZsVJo5AJRmCkX-1" vertex="1">
                    <mxGeometry y="130" width="160" height="26" as="geometry"/>
                </mxCell>
                <mxCell id="Ab5QefLZsVJo5AJRmCkX-6" value="reviews: List&lt;Review&gt;" style="text;align=left;verticalAlign=top;spacingLeft=4;spacingRight=4;overflow=hidden;rotatable=0;points=[[0,0.5],[1,0.5]];portConstraint=eastwest;rounded=0;shadow=0;html=0;" parent="Ab5QefLZsVJo5AJRmCkX-1" vertex="1">
                    <mxGeometry y="156" width="160" height="26" as="geometry"/>
                </mxCell>
                <mxCell id="Ab5QefLZsVJo5AJRmCkX-7" value="stars: int" style="text;align=left;verticalAlign=top;spacingLeft=4;spacingRight=4;overflow=hidden;rotatable=0;points=[[0,0.5],[1,0.5]];portConstraint=eastwest;rounded=0;shadow=0;html=0;" parent="Ab5QefLZsVJo5AJRmCkX-1" vertex="1">
                    <mxGeometry y="182" width="160" height="26" as="geometry"/>
                </mxCell>
                <mxCell id="Ab5QefLZsVJo5AJRmCkX-8" value="" style="line;html=1;strokeWidth=1;align=left;verticalAlign=middle;spacingTop=-1;spacingLeft=3;spacingRight=3;rotatable=0;labelPosition=right;points=[];portConstraint=eastwest;" parent="Ab5QefLZsVJo5AJRmCkX-1" vertex="1">
                    <mxGeometry y="208" width="160" height="8" as="geometry"/>
                </mxCell>
                <mxCell id="Ab5QefLZsVJo5AJRmCkX-9" value="House" style="swimlane;fontStyle=0;align=center;verticalAlign=top;childLayout=stackLayout;horizontal=1;startSize=26;horizontalStack=0;resizeParent=1;resizeLast=0;collapsible=1;marginBottom=0;rounded=0;shadow=0;strokeWidth=1;" parent="1" vertex="1">
                    <mxGeometry x="320" y="344" width="160" height="242" as="geometry">
                        <mxRectangle x="130" y="380" width="160" height="26" as="alternateBounds"/>
                    </mxGeometry>
                </mxCell>
                <mxCell id="Ab5QefLZsVJo5AJRmCkX-10" value="id: int" style="text;align=left;verticalAlign=top;spacingLeft=4;spacingRight=4;overflow=hidden;rotatable=0;points=[[0,0.5],[1,0.5]];portConstraint=eastwest;" parent="Ab5QefLZsVJo5AJRmCkX-9" vertex="1">
                    <mxGeometry y="26" width="160" height="26" as="geometry"/>
                </mxCell>
                <mxCell id="Ab5QefLZsVJo5AJRmCkX-11" value="adress: str" style="text;align=left;verticalAlign=top;spacingLeft=4;spacingRight=4;overflow=hidden;rotatable=0;points=[[0,0.5],[1,0.5]];portConstraint=eastwest;rounded=0;shadow=0;html=0;" parent="Ab5QefLZsVJo5AJRmCkX-9" vertex="1">
                    <mxGeometry y="52" width="160" height="26" as="geometry"/>
                </mxCell>
                <mxCell id="Ab5QefLZsVJo5AJRmCkX-12" value="description: str" style="text;align=left;verticalAlign=top;spacingLeft=4;spacingRight=4;overflow=hidden;rotatable=0;points=[[0,0.5],[1,0.5]];portConstraint=eastwest;" parent="Ab5QefLZsVJo5AJRmCkX-9" vertex="1">
                    <mxGeometry y="78" width="160" height="26" as="geometry"/>
                </mxCell>
                <mxCell id="Ab5QefLZsVJo5AJRmCkX-13" value="owner: User" style="text;align=left;verticalAlign=top;spacingLeft=4;spacingRight=4;overflow=hidden;rotatable=0;points=[[0,0.5],[1,0.5]];portConstraint=eastwest;" parent="Ab5QefLZsVJo5AJRmCkX-9" vertex="1">
                    <mxGeometry y="104" width="160" height="26" as="geometry"/>
                </mxCell>
                <mxCell id="Ab5QefLZsVJo5AJRmCkX-14" value="reviews: List&lt;Review&gt;" style="text;align=left;verticalAlign=top;spacingLeft=4;spacingRight=4;overflow=hidden;rotatable=0;points=[[0,0.5],[1,0.5]];portConstraint=eastwest;" parent="Ab5QefLZsVJo5AJRmCkX-9" vertex="1">
                    <mxGeometry y="130" width="160" height="26" as="geometry"/>
                </mxCell>
                <mxCell id="Ab5QefLZsVJo5AJRmCkX-15" value="starts:int" style="text;align=left;verticalAlign=top;spacingLeft=4;spacingRight=4;overflow=hidden;rotatable=0;points=[[0,0.5],[1,0.5]];portConstraint=eastwest;" parent="Ab5QefLZsVJo5AJRmCkX-9" vertex="1">
                    <mxGeometry y="156" width="160" height="26" as="geometry"/>
                </mxCell>
                <mxCell id="Ab5QefLZsVJo5AJRmCkX-16" value="isAvalible: bool" style="text;align=left;verticalAlign=top;spacingLeft=4;spacingRight=4;overflow=hidden;rotatable=0;points=[[0,0.5],[1,0.5]];portConstraint=eastwest;fontStyle=0" parent="Ab5QefLZsVJo5AJRmCkX-9" vertex="1">
                    <mxGeometry y="182" width="160" height="26" as="geometry"/>
                </mxCell>
                <mxCell id="cr-ZtdAdpo4vTF-ogL8i-5" value="images: List&lt;Image&gt;" style="text;align=left;verticalAlign=top;spacingLeft=4;spacingRight=4;overflow=hidden;rotatable=0;points=[[0,0.5],[1,0.5]];portConstraint=eastwest;fontStyle=0" parent="Ab5QefLZsVJo5AJRmCkX-9" vertex="1">
                    <mxGeometry y="208" width="160" height="26" as="geometry"/>
                </mxCell>
                <mxCell id="Ab5QefLZsVJo5AJRmCkX-17" value="" style="line;html=1;strokeWidth=1;align=left;verticalAlign=middle;spacingTop=-1;spacingLeft=3;spacingRight=3;rotatable=0;labelPosition=right;points=[];portConstraint=eastwest;" parent="Ab5QefLZsVJo5AJRmCkX-9" vertex="1">
                    <mxGeometry y="234" width="160" height="8" as="geometry"/>
                </mxCell>
                <mxCell id="Ab5QefLZsVJo5AJRmCkX-18" value="Rent" style="swimlane;fontStyle=0;childLayout=stackLayout;horizontal=1;startSize=26;fillColor=none;horizontalStack=0;resizeParent=1;resizeParentMax=0;resizeLast=0;collapsible=1;marginBottom=0;whiteSpace=wrap;html=1;" parent="1" vertex="1">
                    <mxGeometry x="80" y="390" width="140" height="130" as="geometry"/>
                </mxCell>
                <mxCell id="Ab5QefLZsVJo5AJRmCkX-19" value="house:House" style="text;strokeColor=none;fillColor=none;align=left;verticalAlign=top;spacingLeft=4;spacingRight=4;overflow=hidden;rotatable=0;points=[[0,0.5],[1,0.5]];portConstraint=eastwest;whiteSpace=wrap;html=1;" parent="Ab5QefLZsVJo5AJRmCkX-18" vertex="1">
                    <mxGeometry y="26" width="140" height="26" as="geometry"/>
                </mxCell>
                <mxCell id="Ab5QefLZsVJo5AJRmCkX-20" value="price: float" style="text;strokeColor=none;fillColor=none;align=left;verticalAlign=top;spacingLeft=4;spacingRight=4;overflow=hidden;rotatable=0;points=[[0,0.5],[1,0.5]];portConstraint=eastwest;whiteSpace=wrap;html=1;" parent="Ab5QefLZsVJo5AJRmCkX-18" vertex="1">
                    <mxGeometry y="52" width="140" height="26" as="geometry"/>
                </mxCell>
                <mxCell id="Ab5QefLZsVJo5AJRmCkX-21" value="locator: User" style="text;strokeColor=none;fillColor=none;align=left;verticalAlign=top;spacingLeft=4;spacingRight=4;overflow=hidden;rotatable=0;points=[[0,0.5],[1,0.5]];portConstraint=eastwest;whiteSpace=wrap;html=1;" parent="Ab5QefLZsVJo5AJRmCkX-18" vertex="1">
                    <mxGeometry y="78" width="140" height="26" as="geometry"/>
                </mxCell>
                <mxCell id="m1aV6YNL7BwlVM7KP5-6-1" value="accepted: bool" style="text;strokeColor=none;fillColor=none;align=left;verticalAlign=top;spacingLeft=4;spacingRight=4;overflow=hidden;rotatable=0;points=[[0,0.5],[1,0.5]];portConstraint=eastwest;whiteSpace=wrap;html=1;" vertex="1" parent="Ab5QefLZsVJo5AJRmCkX-18">
                    <mxGeometry y="104" width="140" height="26" as="geometry"/>
                </mxCell>
                <mxCell id="Ab5QefLZsVJo5AJRmCkX-22" style="edgeStyle=orthogonalEdgeStyle;rounded=0;orthogonalLoop=1;jettySize=auto;html=1;exitX=1;exitY=0.5;exitDx=0;exitDy=0;entryX=0;entryY=0.5;entryDx=0;entryDy=0;" parent="1" source="Ab5QefLZsVJo5AJRmCkX-19" target="Ab5QefLZsVJo5AJRmCkX-10" edge="1">
                    <mxGeometry relative="1" as="geometry"/>
                </mxCell>
                <mxCell id="Ab5QefLZsVJo5AJRmCkX-23" style="edgeStyle=orthogonalEdgeStyle;rounded=0;orthogonalLoop=1;jettySize=auto;html=1;exitX=0;exitY=0.5;exitDx=0;exitDy=0;entryX=0;entryY=0.5;entryDx=0;entryDy=0;" parent="1" source="Ab5QefLZsVJo5AJRmCkX-21" target="Ab5QefLZsVJo5AJRmCkX-2" edge="1">
                    <mxGeometry relative="1" as="geometry"/>
                </mxCell>
                <mxCell id="Ab5QefLZsVJo5AJRmCkX-24" style="edgeStyle=orthogonalEdgeStyle;rounded=0;orthogonalLoop=1;jettySize=auto;html=1;exitX=0;exitY=0.5;exitDx=0;exitDy=0;entryX=1;entryY=0.5;entryDx=0;entryDy=0;" parent="1" source="Ab5QefLZsVJo5AJRmCkX-13" target="Ab5QefLZsVJo5AJRmCkX-2" edge="1">
                    <mxGeometry relative="1" as="geometry"/>
                </mxCell>
                <mxCell id="cr-ZtdAdpo4vTF-ogL8i-1" value="ImageHouse" style="swimlane;fontStyle=2;align=center;verticalAlign=top;childLayout=stackLayout;horizontal=1;startSize=26;horizontalStack=0;resizeParent=1;resizeLast=0;collapsible=1;marginBottom=0;rounded=0;shadow=0;strokeWidth=1;" parent="1" vertex="1">
                    <mxGeometry x="590" y="410" width="160" height="112" as="geometry">
                        <mxRectangle x="160" y="10" width="160" height="26" as="alternateBounds"/>
                    </mxGeometry>
                </mxCell>
                <mxCell id="cr-ZtdAdpo4vTF-ogL8i-2" value="id: Int" style="text;align=left;verticalAlign=top;spacingLeft=4;spacingRight=4;overflow=hidden;rotatable=0;points=[[0,0.5],[1,0.5]];portConstraint=eastwest;" parent="cr-ZtdAdpo4vTF-ogL8i-1" vertex="1">
                    <mxGeometry y="26" width="160" height="26" as="geometry"/>
                </mxCell>
                <mxCell id="m2aFCqIrcoCq7BSgz2a4-1" value="house: House" style="text;align=left;verticalAlign=top;spacingLeft=4;spacingRight=4;overflow=hidden;rotatable=0;points=[[0,0.5],[1,0.5]];portConstraint=eastwest;" parent="cr-ZtdAdpo4vTF-ogL8i-1" vertex="1">
                    <mxGeometry y="52" width="160" height="26" as="geometry"/>
                </mxCell>
                <mxCell id="cr-ZtdAdpo4vTF-ogL8i-3" value="url: str&#xa;" style="text;align=left;verticalAlign=top;spacingLeft=4;spacingRight=4;overflow=hidden;rotatable=0;points=[[0,0.5],[1,0.5]];portConstraint=eastwest;" parent="cr-ZtdAdpo4vTF-ogL8i-1" vertex="1">
                    <mxGeometry y="78" width="160" height="26" as="geometry"/>
                </mxCell>
                <mxCell id="cr-ZtdAdpo4vTF-ogL8i-4" value="" style="line;html=1;strokeWidth=1;align=left;verticalAlign=middle;spacingTop=-1;spacingLeft=3;spacingRight=3;rotatable=0;labelPosition=right;points=[];portConstraint=eastwest;" parent="cr-ZtdAdpo4vTF-ogL8i-1" vertex="1">
                    <mxGeometry y="104" width="160" height="8" as="geometry"/>
                </mxCell>
                <mxCell id="m2aFCqIrcoCq7BSgz2a4-2" style="edgeStyle=orthogonalEdgeStyle;rounded=0;orthogonalLoop=1;jettySize=auto;html=1;exitX=0;exitY=0.5;exitDx=0;exitDy=0;entryX=1;entryY=0.5;entryDx=0;entryDy=0;" parent="1" source="m2aFCqIrcoCq7BSgz2a4-1" target="Ab5QefLZsVJo5AJRmCkX-10" edge="1">
                    <mxGeometry relative="1" as="geometry"/>
                </mxCell>
            </root>
        </mxGraphModel>
    </diagram>
    <diagram id="2uTJN4IyQsLlH33EmC34" name="Chat">
        <mxGraphModel dx="957" dy="614" grid="1" gridSize="10" guides="1" tooltips="1" connect="1" arrows="1" fold="1" page="1" pageScale="1" pageWidth="850" pageHeight="1100" math="0" shadow="0">
            <root>
                <mxCell id="0"/>
                <mxCell id="1" parent="0"/>
                <mxCell id="M81E-o6ACX2cRvGKaL9T-1" value="User" style="swimlane;fontStyle=2;align=center;verticalAlign=top;childLayout=stackLayout;horizontal=1;startSize=26;horizontalStack=0;resizeParent=1;resizeLast=0;collapsible=1;marginBottom=0;rounded=0;shadow=0;strokeWidth=1;" parent="1" vertex="1">
                    <mxGeometry x="430" y="14" width="160" height="216" as="geometry">
                        <mxRectangle x="160" y="10" width="160" height="26" as="alternateBounds"/>
                    </mxGeometry>
                </mxCell>
                <mxCell id="M81E-o6ACX2cRvGKaL9T-2" value="id: Int" style="text;align=left;verticalAlign=top;spacingLeft=4;spacingRight=4;overflow=hidden;rotatable=0;points=[[0,0.5],[1,0.5]];portConstraint=eastwest;" parent="M81E-o6ACX2cRvGKaL9T-1" vertex="1">
                    <mxGeometry y="26" width="160" height="26" as="geometry"/>
                </mxCell>
                <mxCell id="M81E-o6ACX2cRvGKaL9T-3" value="name: str" style="text;align=left;verticalAlign=top;spacingLeft=4;spacingRight=4;overflow=hidden;rotatable=0;points=[[0,0.5],[1,0.5]];portConstraint=eastwest;" parent="M81E-o6ACX2cRvGKaL9T-1" vertex="1">
                    <mxGeometry y="52" width="160" height="26" as="geometry"/>
                </mxCell>
                <mxCell id="M81E-o6ACX2cRvGKaL9T-4" value="email: str" style="text;align=left;verticalAlign=top;spacingLeft=4;spacingRight=4;overflow=hidden;rotatable=0;points=[[0,0.5],[1,0.5]];portConstraint=eastwest;" parent="M81E-o6ACX2cRvGKaL9T-1" vertex="1">
                    <mxGeometry y="78" width="160" height="26" as="geometry"/>
                </mxCell>
                <mxCell id="OL9Hsole1Qhi26MhzANw-1" value="password: str" style="text;align=left;verticalAlign=top;spacingLeft=4;spacingRight=4;overflow=hidden;rotatable=0;points=[[0,0.5],[1,0.5]];portConstraint=eastwest;" parent="M81E-o6ACX2cRvGKaL9T-1" vertex="1">
                    <mxGeometry y="104" width="160" height="26" as="geometry"/>
                </mxCell>
                <mxCell id="M81E-o6ACX2cRvGKaL9T-5" value="typeUser: TypeUser" style="text;align=left;verticalAlign=top;spacingLeft=4;spacingRight=4;overflow=hidden;rotatable=0;points=[[0,0.5],[1,0.5]];portConstraint=eastwest;" parent="M81E-o6ACX2cRvGKaL9T-1" vertex="1">
                    <mxGeometry y="130" width="160" height="26" as="geometry"/>
                </mxCell>
                <mxCell id="M81E-o6ACX2cRvGKaL9T-6" value="reviews: List&lt;Review&gt;" style="text;align=left;verticalAlign=top;spacingLeft=4;spacingRight=4;overflow=hidden;rotatable=0;points=[[0,0.5],[1,0.5]];portConstraint=eastwest;rounded=0;shadow=0;html=0;" parent="M81E-o6ACX2cRvGKaL9T-1" vertex="1">
                    <mxGeometry y="156" width="160" height="26" as="geometry"/>
                </mxCell>
                <mxCell id="M81E-o6ACX2cRvGKaL9T-7" value="stars: int" style="text;align=left;verticalAlign=top;spacingLeft=4;spacingRight=4;overflow=hidden;rotatable=0;points=[[0,0.5],[1,0.5]];portConstraint=eastwest;rounded=0;shadow=0;html=0;" parent="M81E-o6ACX2cRvGKaL9T-1" vertex="1">
                    <mxGeometry y="182" width="160" height="26" as="geometry"/>
                </mxCell>
                <mxCell id="M81E-o6ACX2cRvGKaL9T-8" value="" style="line;html=1;strokeWidth=1;align=left;verticalAlign=middle;spacingTop=-1;spacingLeft=3;spacingRight=3;rotatable=0;labelPosition=right;points=[];portConstraint=eastwest;" parent="M81E-o6ACX2cRvGKaL9T-1" vertex="1">
                    <mxGeometry y="208" width="160" height="8" as="geometry"/>
                </mxCell>
                <mxCell id="M81E-o6ACX2cRvGKaL9T-17" value="Chat" style="swimlane;fontStyle=2;align=center;verticalAlign=top;childLayout=stackLayout;horizontal=1;startSize=26;horizontalStack=0;resizeParent=1;resizeLast=0;collapsible=1;marginBottom=0;rounded=0;shadow=0;strokeWidth=1;" parent="1" vertex="1">
                    <mxGeometry x="430" y="240" width="160" height="190" as="geometry">
                        <mxRectangle x="160" y="10" width="160" height="26" as="alternateBounds"/>
                    </mxGeometry>
                </mxCell>
                <mxCell id="M81E-o6ACX2cRvGKaL9T-18" value="id: Int" style="text;align=left;verticalAlign=top;spacingLeft=4;spacingRight=4;overflow=hidden;rotatable=0;points=[[0,0.5],[1,0.5]];portConstraint=eastwest;" parent="M81E-o6ACX2cRvGKaL9T-17" vertex="1">
                    <mxGeometry y="26" width="160" height="26" as="geometry"/>
                </mxCell>
                <mxCell id="M81E-o6ACX2cRvGKaL9T-19" value="owner: User" style="text;align=left;verticalAlign=top;spacingLeft=4;spacingRight=4;overflow=hidden;rotatable=0;points=[[0,0.5],[1,0.5]];portConstraint=eastwest;" parent="M81E-o6ACX2cRvGKaL9T-17" vertex="1">
                    <mxGeometry y="52" width="160" height="26" as="geometry"/>
                </mxCell>
                <mxCell id="M81E-o6ACX2cRvGKaL9T-20" value="interested: User" style="text;align=left;verticalAlign=top;spacingLeft=4;spacingRight=4;overflow=hidden;rotatable=0;points=[[0,0.5],[1,0.5]];portConstraint=eastwest;" parent="M81E-o6ACX2cRvGKaL9T-17" vertex="1">
                    <mxGeometry y="78" width="160" height="26" as="geometry"/>
                </mxCell>
                <mxCell id="M81E-o6ACX2cRvGKaL9T-21" value="house: House" style="text;align=left;verticalAlign=top;spacingLeft=4;spacingRight=4;overflow=hidden;rotatable=0;points=[[0,0.5],[1,0.5]];portConstraint=eastwest;" parent="M81E-o6ACX2cRvGKaL9T-17" vertex="1">
                    <mxGeometry y="104" width="160" height="26" as="geometry"/>
                </mxCell>
                <mxCell id="M81E-o6ACX2cRvGKaL9T-22" value="messages: List&lt;Message&gt;" style="text;align=left;verticalAlign=top;spacingLeft=4;spacingRight=4;overflow=hidden;rotatable=0;points=[[0,0.5],[1,0.5]];portConstraint=eastwest;rounded=0;shadow=0;html=0;" parent="M81E-o6ACX2cRvGKaL9T-17" vertex="1">
                    <mxGeometry y="130" width="160" height="26" as="geometry"/>
                </mxCell>
                <mxCell id="M81E-o6ACX2cRvGKaL9T-23" value="dateTime: LocalDateTime" style="text;align=left;verticalAlign=top;spacingLeft=4;spacingRight=4;overflow=hidden;rotatable=0;points=[[0,0.5],[1,0.5]];portConstraint=eastwest;rounded=0;shadow=0;html=0;" parent="M81E-o6ACX2cRvGKaL9T-17" vertex="1">
                    <mxGeometry y="156" width="160" height="26" as="geometry"/>
                </mxCell>
                <mxCell id="M81E-o6ACX2cRvGKaL9T-24" value="" style="line;html=1;strokeWidth=1;align=left;verticalAlign=middle;spacingTop=-1;spacingLeft=3;spacingRight=3;rotatable=0;labelPosition=right;points=[];portConstraint=eastwest;" parent="M81E-o6ACX2cRvGKaL9T-17" vertex="1">
                    <mxGeometry y="182" width="160" height="8" as="geometry"/>
                </mxCell>
                <mxCell id="M81E-o6ACX2cRvGKaL9T-25" value="Message" style="swimlane;fontStyle=2;align=center;verticalAlign=top;childLayout=stackLayout;horizontal=1;startSize=26;horizontalStack=0;resizeParent=1;resizeLast=0;collapsible=1;marginBottom=0;rounded=0;shadow=0;strokeWidth=1;" parent="1" vertex="1">
                    <mxGeometry x="425" y="440" width="160" height="216" as="geometry">
                        <mxRectangle x="160" y="10" width="160" height="26" as="alternateBounds"/>
                    </mxGeometry>
                </mxCell>
                <mxCell id="M81E-o6ACX2cRvGKaL9T-26" value="id: Int" style="text;align=left;verticalAlign=top;spacingLeft=4;spacingRight=4;overflow=hidden;rotatable=0;points=[[0,0.5],[1,0.5]];portConstraint=eastwest;" parent="M81E-o6ACX2cRvGKaL9T-25" vertex="1">
                    <mxGeometry y="26" width="160" height="26" as="geometry"/>
                </mxCell>
                <mxCell id="M81E-o6ACX2cRvGKaL9T-27" value="chat: Chat" style="text;align=left;verticalAlign=top;spacingLeft=4;spacingRight=4;overflow=hidden;rotatable=0;points=[[0,0.5],[1,0.5]];portConstraint=eastwest;" parent="M81E-o6ACX2cRvGKaL9T-25" vertex="1">
                    <mxGeometry y="52" width="160" height="26" as="geometry"/>
                </mxCell>
                <mxCell id="M81E-o6ACX2cRvGKaL9T-29" value="content: str" style="text;align=left;verticalAlign=top;spacingLeft=4;spacingRight=4;overflow=hidden;rotatable=0;points=[[0,0.5],[1,0.5]];portConstraint=eastwest;" parent="M81E-o6ACX2cRvGKaL9T-25" vertex="1">
                    <mxGeometry y="78" width="160" height="26" as="geometry"/>
                </mxCell>
                <mxCell id="M81E-o6ACX2cRvGKaL9T-30" value="user: User" style="text;align=left;verticalAlign=top;spacingLeft=4;spacingRight=4;overflow=hidden;rotatable=0;points=[[0,0.5],[1,0.5]];portConstraint=eastwest;rounded=0;shadow=0;html=0;" parent="M81E-o6ACX2cRvGKaL9T-25" vertex="1">
                    <mxGeometry y="104" width="160" height="26" as="geometry"/>
                </mxCell>
                <mxCell id="M81E-o6ACX2cRvGKaL9T-31" value="dateTime: LocalDateTime" style="text;align=left;verticalAlign=top;spacingLeft=4;spacingRight=4;overflow=hidden;rotatable=0;points=[[0,0.5],[1,0.5]];portConstraint=eastwest;rounded=0;shadow=0;html=0;" parent="M81E-o6ACX2cRvGKaL9T-25" vertex="1">
                    <mxGeometry y="130" width="160" height="26" as="geometry"/>
                </mxCell>
                <mxCell id="rPjpYsNO3jBZo0AonoHw-10" value="img: Image" style="text;align=left;verticalAlign=top;spacingLeft=4;spacingRight=4;overflow=hidden;rotatable=0;points=[[0,0.5],[1,0.5]];portConstraint=eastwest;rounded=0;shadow=0;html=0;" parent="M81E-o6ACX2cRvGKaL9T-25" vertex="1">
                    <mxGeometry y="156" width="160" height="26" as="geometry"/>
                </mxCell>
                <mxCell id="M81E-o6ACX2cRvGKaL9T-32" value="" style="line;html=1;strokeWidth=1;align=left;verticalAlign=middle;spacingTop=-1;spacingLeft=3;spacingRight=3;rotatable=0;labelPosition=right;points=[];portConstraint=eastwest;" parent="M81E-o6ACX2cRvGKaL9T-25" vertex="1">
                    <mxGeometry y="182" width="160" height="8" as="geometry"/>
                </mxCell>
                <mxCell id="M81E-o6ACX2cRvGKaL9T-33" style="edgeStyle=orthogonalEdgeStyle;rounded=0;orthogonalLoop=1;jettySize=auto;html=1;exitX=1;exitY=0.5;exitDx=0;exitDy=0;entryX=1;entryY=0.5;entryDx=0;entryDy=0;" parent="1" source="M81E-o6ACX2cRvGKaL9T-27" target="M81E-o6ACX2cRvGKaL9T-18" edge="1">
                    <mxGeometry relative="1" as="geometry">
                        <Array as="points">
                            <mxPoint x="620" y="505"/>
                            <mxPoint x="620" y="279"/>
                        </Array>
                    </mxGeometry>
                </mxCell>
                <mxCell id="eJ3CrgW4z0SjJ5Kpmasc-1" value="House" style="swimlane;fontStyle=0;align=center;verticalAlign=top;childLayout=stackLayout;horizontal=1;startSize=26;horizontalStack=0;resizeParent=1;resizeLast=0;collapsible=1;marginBottom=0;rounded=0;shadow=0;strokeWidth=1;" parent="1" vertex="1">
                    <mxGeometry x="170" y="14" width="160" height="242" as="geometry">
                        <mxRectangle x="130" y="380" width="160" height="26" as="alternateBounds"/>
                    </mxGeometry>
                </mxCell>
                <mxCell id="eJ3CrgW4z0SjJ5Kpmasc-2" value="id: int" style="text;align=left;verticalAlign=top;spacingLeft=4;spacingRight=4;overflow=hidden;rotatable=0;points=[[0,0.5],[1,0.5]];portConstraint=eastwest;" parent="eJ3CrgW4z0SjJ5Kpmasc-1" vertex="1">
                    <mxGeometry y="26" width="160" height="26" as="geometry"/>
                </mxCell>
                <mxCell id="eJ3CrgW4z0SjJ5Kpmasc-3" value="adress: str" style="text;align=left;verticalAlign=top;spacingLeft=4;spacingRight=4;overflow=hidden;rotatable=0;points=[[0,0.5],[1,0.5]];portConstraint=eastwest;rounded=0;shadow=0;html=0;" parent="eJ3CrgW4z0SjJ5Kpmasc-1" vertex="1">
                    <mxGeometry y="52" width="160" height="26" as="geometry"/>
                </mxCell>
                <mxCell id="eJ3CrgW4z0SjJ5Kpmasc-4" value="description: str" style="text;align=left;verticalAlign=top;spacingLeft=4;spacingRight=4;overflow=hidden;rotatable=0;points=[[0,0.5],[1,0.5]];portConstraint=eastwest;" parent="eJ3CrgW4z0SjJ5Kpmasc-1" vertex="1">
                    <mxGeometry y="78" width="160" height="26" as="geometry"/>
                </mxCell>
                <mxCell id="eJ3CrgW4z0SjJ5Kpmasc-5" value="owner: User" style="text;align=left;verticalAlign=top;spacingLeft=4;spacingRight=4;overflow=hidden;rotatable=0;points=[[0,0.5],[1,0.5]];portConstraint=eastwest;" parent="eJ3CrgW4z0SjJ5Kpmasc-1" vertex="1">
                    <mxGeometry y="104" width="160" height="26" as="geometry"/>
                </mxCell>
                <mxCell id="eJ3CrgW4z0SjJ5Kpmasc-6" value="reviews: List&lt;Review&gt;" style="text;align=left;verticalAlign=top;spacingLeft=4;spacingRight=4;overflow=hidden;rotatable=0;points=[[0,0.5],[1,0.5]];portConstraint=eastwest;" parent="eJ3CrgW4z0SjJ5Kpmasc-1" vertex="1">
                    <mxGeometry y="130" width="160" height="26" as="geometry"/>
                </mxCell>
                <mxCell id="eJ3CrgW4z0SjJ5Kpmasc-7" value="starts:int" style="text;align=left;verticalAlign=top;spacingLeft=4;spacingRight=4;overflow=hidden;rotatable=0;points=[[0,0.5],[1,0.5]];portConstraint=eastwest;" parent="eJ3CrgW4z0SjJ5Kpmasc-1" vertex="1">
                    <mxGeometry y="156" width="160" height="26" as="geometry"/>
                </mxCell>
                <mxCell id="eJ3CrgW4z0SjJ5Kpmasc-8" value="isAvalible: bool" style="text;align=left;verticalAlign=top;spacingLeft=4;spacingRight=4;overflow=hidden;rotatable=0;points=[[0,0.5],[1,0.5]];portConstraint=eastwest;fontStyle=0" parent="eJ3CrgW4z0SjJ5Kpmasc-1" vertex="1">
                    <mxGeometry y="182" width="160" height="26" as="geometry"/>
                </mxCell>
                <mxCell id="YjFLEUZWsh-tiK5r0ArF-1" value="images: List&lt;Image&gt;" style="text;align=left;verticalAlign=top;spacingLeft=4;spacingRight=4;overflow=hidden;rotatable=0;points=[[0,0.5],[1,0.5]];portConstraint=eastwest;fontStyle=0" parent="eJ3CrgW4z0SjJ5Kpmasc-1" vertex="1">
                    <mxGeometry y="208" width="160" height="26" as="geometry"/>
                </mxCell>
                <mxCell id="eJ3CrgW4z0SjJ5Kpmasc-9" value="" style="line;html=1;strokeWidth=1;align=left;verticalAlign=middle;spacingTop=-1;spacingLeft=3;spacingRight=3;rotatable=0;labelPosition=right;points=[];portConstraint=eastwest;" parent="eJ3CrgW4z0SjJ5Kpmasc-1" vertex="1">
                    <mxGeometry y="234" width="160" height="8" as="geometry"/>
                </mxCell>
                <mxCell id="eJ3CrgW4z0SjJ5Kpmasc-10" style="edgeStyle=orthogonalEdgeStyle;rounded=0;orthogonalLoop=1;jettySize=auto;html=1;exitX=0;exitY=0.5;exitDx=0;exitDy=0;entryX=1;entryY=0.5;entryDx=0;entryDy=0;" parent="1" source="M81E-o6ACX2cRvGKaL9T-21" target="eJ3CrgW4z0SjJ5Kpmasc-2" edge="1">
                    <mxGeometry relative="1" as="geometry"/>
                </mxCell>
                <mxCell id="eJ3CrgW4z0SjJ5Kpmasc-11" style="edgeStyle=orthogonalEdgeStyle;rounded=0;orthogonalLoop=1;jettySize=auto;html=1;exitX=1;exitY=0.5;exitDx=0;exitDy=0;entryX=1;entryY=0.5;entryDx=0;entryDy=0;" parent="1" source="M81E-o6ACX2cRvGKaL9T-19" target="M81E-o6ACX2cRvGKaL9T-2" edge="1">
                    <mxGeometry relative="1" as="geometry"/>
                </mxCell>
                <mxCell id="eJ3CrgW4z0SjJ5Kpmasc-12" style="edgeStyle=orthogonalEdgeStyle;rounded=0;orthogonalLoop=1;jettySize=auto;html=1;exitX=0;exitY=0.5;exitDx=0;exitDy=0;entryX=0;entryY=0.5;entryDx=0;entryDy=0;" parent="1" source="M81E-o6ACX2cRvGKaL9T-20" target="M81E-o6ACX2cRvGKaL9T-2" edge="1">
                    <mxGeometry relative="1" as="geometry"/>
                </mxCell>
                <mxCell id="eJ3CrgW4z0SjJ5Kpmasc-13" style="edgeStyle=orthogonalEdgeStyle;rounded=0;orthogonalLoop=1;jettySize=auto;html=1;exitX=1;exitY=0.5;exitDx=0;exitDy=0;entryX=1;entryY=0.5;entryDx=0;entryDy=0;" parent="1" source="M81E-o6ACX2cRvGKaL9T-30" target="M81E-o6ACX2cRvGKaL9T-2" edge="1">
                    <mxGeometry relative="1" as="geometry">
                        <Array as="points">
                            <mxPoint x="640" y="583"/>
                            <mxPoint x="640" y="59"/>
                        </Array>
                    </mxGeometry>
                </mxCell>
                <mxCell id="rPjpYsNO3jBZo0AonoHw-1" value="ImageMessage" style="swimlane;fontStyle=2;align=center;verticalAlign=top;childLayout=stackLayout;horizontal=1;startSize=26;horizontalStack=0;resizeParent=1;resizeLast=0;collapsible=1;marginBottom=0;rounded=0;shadow=0;strokeWidth=1;" parent="1" vertex="1">
                    <mxGeometry x="200" y="420" width="160" height="86" as="geometry">
                        <mxRectangle x="160" y="10" width="160" height="26" as="alternateBounds"/>
                    </mxGeometry>
                </mxCell>
                <mxCell id="rPjpYsNO3jBZo0AonoHw-2" value="id: Int" style="text;align=left;verticalAlign=top;spacingLeft=4;spacingRight=4;overflow=hidden;rotatable=0;points=[[0,0.5],[1,0.5]];portConstraint=eastwest;" parent="rPjpYsNO3jBZo0AonoHw-1" vertex="1">
                    <mxGeometry y="26" width="160" height="26" as="geometry"/>
                </mxCell>
                <mxCell id="rPjpYsNO3jBZo0AonoHw-3" value="url: str&#xa;" style="text;align=left;verticalAlign=top;spacingLeft=4;spacingRight=4;overflow=hidden;rotatable=0;points=[[0,0.5],[1,0.5]];portConstraint=eastwest;" parent="rPjpYsNO3jBZo0AonoHw-1" vertex="1">
                    <mxGeometry y="52" width="160" height="26" as="geometry"/>
                </mxCell>
                <mxCell id="rPjpYsNO3jBZo0AonoHw-8" value="" style="line;html=1;strokeWidth=1;align=left;verticalAlign=middle;spacingTop=-1;spacingLeft=3;spacingRight=3;rotatable=0;labelPosition=right;points=[];portConstraint=eastwest;" parent="rPjpYsNO3jBZo0AonoHw-1" vertex="1">
                    <mxGeometry y="78" width="160" height="8" as="geometry"/>
                </mxCell>
                <mxCell id="rPjpYsNO3jBZo0AonoHw-11" style="edgeStyle=orthogonalEdgeStyle;rounded=0;orthogonalLoop=1;jettySize=auto;html=1;exitX=0;exitY=0.5;exitDx=0;exitDy=0;entryX=1;entryY=0.5;entryDx=0;entryDy=0;" parent="1" source="rPjpYsNO3jBZo0AonoHw-10" target="rPjpYsNO3jBZo0AonoHw-2" edge="1">
                    <mxGeometry relative="1" as="geometry"/>
                </mxCell>
            </root>
        </mxGraphModel>
    </diagram>
    <diagram id="K1Ni8Ue_CbwgIMymNxr_" name="Casos de Uso">
        <mxGraphModel dx="957" dy="614" grid="1" gridSize="10" guides="1" tooltips="1" connect="1" arrows="1" fold="1" page="1" pageScale="1" pageWidth="850" pageHeight="1100" math="0" shadow="0">
            <root>
                <mxCell id="0"/>
                <mxCell id="1" parent="0"/>
                <mxCell id="jA2UE5slMQ7CVzLZvwPn-8" style="edgeStyle=orthogonalEdgeStyle;rounded=0;orthogonalLoop=1;jettySize=auto;html=1;" parent="1" source="IXJ_hm4Vn2ugvszXLKli-1" target="IXJ_hm4Vn2ugvszXLKli-5" edge="1">
                    <mxGeometry relative="1" as="geometry"/>
                </mxCell>
                <mxCell id="IXJ_hm4Vn2ugvszXLKli-1" value="CLIENT" style="shape=umlActor;verticalLabelPosition=bottom;verticalAlign=top;html=1;" parent="1" vertex="1">
                    <mxGeometry x="160" y="100" width="30" height="60" as="geometry"/>
                </mxCell>
                <mxCell id="jA2UE5slMQ7CVzLZvwPn-9" style="edgeStyle=orthogonalEdgeStyle;rounded=0;orthogonalLoop=1;jettySize=auto;html=1;entryX=0.5;entryY=1;entryDx=0;entryDy=0;" parent="1" source="IXJ_hm4Vn2ugvszXLKli-4" target="IXJ_hm4Vn2ugvszXLKli-5" edge="1">
                    <mxGeometry relative="1" as="geometry"/>
                </mxCell>
                <mxCell id="IXJ_hm4Vn2ugvszXLKli-4" value="OWNER" style="shape=umlActor;verticalLabelPosition=bottom;verticalAlign=top;html=1;" parent="1" vertex="1">
                    <mxGeometry x="160" y="280" width="30" height="60" as="geometry"/>
                </mxCell>
                <mxCell id="jA2UE5slMQ7CVzLZvwPn-6" style="edgeStyle=orthogonalEdgeStyle;rounded=0;orthogonalLoop=1;jettySize=auto;html=1;exitX=1;exitY=0.5;exitDx=0;exitDy=0;entryX=0;entryY=0.5;entryDx=0;entryDy=0;" parent="1" source="IXJ_hm4Vn2ugvszXLKli-5" target="IXJ_hm4Vn2ugvszXLKli-6" edge="1">
                    <mxGeometry relative="1" as="geometry"/>
                </mxCell>
                <mxCell id="jA2UE5slMQ7CVzLZvwPn-7" value="Include" style="edgeLabel;html=1;align=center;verticalAlign=middle;resizable=0;points=[];" parent="jA2UE5slMQ7CVzLZvwPn-6" vertex="1" connectable="0">
                    <mxGeometry x="-0.165" y="-2" relative="1" as="geometry">
                        <mxPoint as="offset"/>
                    </mxGeometry>
                </mxCell>
                <mxCell id="IXJ_hm4Vn2ugvszXLKli-5" value="Negociacion de la Casa" style="ellipse;whiteSpace=wrap;html=1;" parent="1" vertex="1">
                    <mxGeometry x="270" y="190" width="140" height="70" as="geometry"/>
                </mxCell>
                <mxCell id="IXJ_hm4Vn2ugvszXLKli-6" value="Chat" style="ellipse;whiteSpace=wrap;html=1;" parent="1" vertex="1">
                    <mxGeometry x="490" y="190" width="140" height="70" as="geometry"/>
                </mxCell>
                <mxCell id="ZC5gkvqko9c_njQ8mgT4-1" value="Assets" style="childLayout=tableLayout;recursiveResize=0;strokeColor=#98bf21;fillColor=#A7C942;shadow=1;" parent="1" vertex="1">
                    <mxGeometry x="311" y="371" width="400" height="470" as="geometry"/>
                </mxCell>
                <mxCell id="ZC5gkvqko9c_njQ8mgT4-2" style="shape=tableRow;horizontal=0;startSize=0;swimlaneHead=0;swimlaneBody=0;top=0;left=0;bottom=0;right=0;dropTarget=0;collapsible=0;recursiveResize=0;expand=0;fontStyle=0;strokeColor=inherit;fillColor=#ffffff;" parent="ZC5gkvqko9c_njQ8mgT4-1" vertex="1">
                    <mxGeometry width="400" height="49" as="geometry"/>
                </mxCell>
                <mxCell id="ZC5gkvqko9c_njQ8mgT4-3" value="Actores" style="connectable=0;recursiveResize=0;strokeColor=inherit;fillColor=#A7C942;align=center;fontStyle=1;fontColor=#FFFFFF;html=1;" parent="ZC5gkvqko9c_njQ8mgT4-2" vertex="1">
                    <mxGeometry width="199" height="49" as="geometry">
                        <mxRectangle width="199" height="49" as="alternateBounds"/>
                    </mxGeometry>
                </mxCell>
                <mxCell id="ZC5gkvqko9c_njQ8mgT4-4" value="Sistema" style="connectable=0;recursiveResize=0;strokeColor=inherit;fillColor=#A7C942;align=center;fontStyle=1;fontColor=#FFFFFF;html=1;" parent="ZC5gkvqko9c_njQ8mgT4-2" vertex="1">
                    <mxGeometry x="199" width="201" height="49" as="geometry">
                        <mxRectangle width="201" height="49" as="alternateBounds"/>
                    </mxGeometry>
                </mxCell>
                <mxCell id="ZC5gkvqko9c_njQ8mgT4-6" value="" style="shape=tableRow;horizontal=0;startSize=0;swimlaneHead=0;swimlaneBody=0;top=0;left=0;bottom=0;right=0;dropTarget=0;collapsible=0;recursiveResize=0;expand=0;fontStyle=0;strokeColor=inherit;fillColor=#ffffff;" parent="ZC5gkvqko9c_njQ8mgT4-1" vertex="1">
                    <mxGeometry y="49" width="400" height="48" as="geometry"/>
                </mxCell>
                <mxCell id="ZC5gkvqko9c_njQ8mgT4-7" value="Cliente entra en contacto con el dueño del imueble para chatear" style="connectable=0;recursiveResize=0;strokeColor=inherit;fillColor=inherit;align=center;whiteSpace=wrap;html=1;" parent="ZC5gkvqko9c_njQ8mgT4-6" vertex="1">
                    <mxGeometry width="199" height="48" as="geometry">
                        <mxRectangle width="199" height="48" as="alternateBounds"/>
                    </mxGeometry>
                </mxCell>
                <mxCell id="ZC5gkvqko9c_njQ8mgT4-8" value="" style="connectable=0;recursiveResize=0;strokeColor=inherit;fillColor=inherit;align=center;whiteSpace=wrap;html=1;" parent="ZC5gkvqko9c_njQ8mgT4-6" vertex="1">
                    <mxGeometry x="199" width="201" height="48" as="geometry">
                        <mxRectangle width="201" height="48" as="alternateBounds"/>
                    </mxGeometry>
                </mxCell>
                <mxCell id="ZC5gkvqko9c_njQ8mgT4-10" value="" style="shape=tableRow;horizontal=0;startSize=0;swimlaneHead=0;swimlaneBody=0;top=0;left=0;bottom=0;right=0;dropTarget=0;collapsible=0;recursiveResize=0;expand=0;fontStyle=1;strokeColor=inherit;fillColor=#EAF2D3;" parent="ZC5gkvqko9c_njQ8mgT4-1" vertex="1">
                    <mxGeometry y="97" width="400" height="47" as="geometry"/>
                </mxCell>
                <mxCell id="ZC5gkvqko9c_njQ8mgT4-11" value="" style="connectable=0;recursiveResize=0;strokeColor=inherit;fillColor=inherit;whiteSpace=wrap;html=1;" parent="ZC5gkvqko9c_njQ8mgT4-10" vertex="1">
                    <mxGeometry width="199" height="47" as="geometry">
                        <mxRectangle width="199" height="47" as="alternateBounds"/>
                    </mxGeometry>
                </mxCell>
                <mxCell id="ZC5gkvqko9c_njQ8mgT4-12" value="La aplicacion crea un nuveo chat entre el dueño, el cliente y la casa" style="connectable=0;recursiveResize=0;strokeColor=inherit;fillColor=inherit;whiteSpace=wrap;html=1;" parent="ZC5gkvqko9c_njQ8mgT4-10" vertex="1">
                    <mxGeometry x="199" width="201" height="47" as="geometry">
                        <mxRectangle width="201" height="47" as="alternateBounds"/>
                    </mxGeometry>
                </mxCell>
                <mxCell id="ZC5gkvqko9c_njQ8mgT4-14" value="" style="shape=tableRow;horizontal=0;startSize=0;swimlaneHead=0;swimlaneBody=0;top=0;left=0;bottom=0;right=0;dropTarget=0;collapsible=0;recursiveResize=0;expand=0;fontStyle=0;strokeColor=inherit;fillColor=#ffffff;" parent="ZC5gkvqko9c_njQ8mgT4-1" vertex="1">
                    <mxGeometry y="144" width="400" height="49" as="geometry"/>
                </mxCell>
                <mxCell id="ZC5gkvqko9c_njQ8mgT4-15" value="" style="connectable=0;recursiveResize=0;strokeColor=inherit;fillColor=inherit;fontStyle=0;align=center;whiteSpace=wrap;html=1;" parent="ZC5gkvqko9c_njQ8mgT4-14" vertex="1">
                    <mxGeometry width="199" height="49" as="geometry">
                        <mxRectangle width="199" height="49" as="alternateBounds"/>
                    </mxGeometry>
                </mxCell>
                <mxCell id="ZC5gkvqko9c_njQ8mgT4-16" value="La apicacion manda una notificacion al dueño" style="connectable=0;recursiveResize=0;strokeColor=inherit;fillColor=inherit;fontStyle=0;align=center;whiteSpace=wrap;html=1;" parent="ZC5gkvqko9c_njQ8mgT4-14" vertex="1">
                    <mxGeometry x="199" width="201" height="49" as="geometry">
                        <mxRectangle width="201" height="49" as="alternateBounds"/>
                    </mxGeometry>
                </mxCell>
                <mxCell id="ZC5gkvqko9c_njQ8mgT4-18" value="" style="shape=tableRow;horizontal=0;startSize=0;swimlaneHead=0;swimlaneBody=0;top=0;left=0;bottom=0;right=0;dropTarget=0;collapsible=0;recursiveResize=0;expand=0;fontStyle=1;strokeColor=inherit;fillColor=#EAF2D3;" parent="ZC5gkvqko9c_njQ8mgT4-1" vertex="1">
                    <mxGeometry y="193" width="400" height="47" as="geometry"/>
                </mxCell>
                <mxCell id="ZC5gkvqko9c_njQ8mgT4-19" value="El dueño y el cliente empiezan a conversar entre si para negociar la casa" style="connectable=0;recursiveResize=0;strokeColor=inherit;fillColor=inherit;whiteSpace=wrap;html=1;" parent="ZC5gkvqko9c_njQ8mgT4-18" vertex="1">
                    <mxGeometry width="199" height="47" as="geometry">
                        <mxRectangle width="199" height="47" as="alternateBounds"/>
                    </mxGeometry>
                </mxCell>
                <mxCell id="ZC5gkvqko9c_njQ8mgT4-20" value="" style="connectable=0;recursiveResize=0;strokeColor=inherit;fillColor=inherit;whiteSpace=wrap;html=1;" parent="ZC5gkvqko9c_njQ8mgT4-18" vertex="1">
                    <mxGeometry x="199" width="201" height="47" as="geometry">
                        <mxRectangle width="201" height="47" as="alternateBounds"/>
                    </mxGeometry>
                </mxCell>
                <mxCell id="ZC5gkvqko9c_njQ8mgT4-37" style="shape=tableRow;horizontal=0;startSize=0;swimlaneHead=0;swimlaneBody=0;top=0;left=0;bottom=0;right=0;dropTarget=0;collapsible=0;recursiveResize=0;expand=0;fontStyle=1;strokeColor=inherit;fillColor=#EAF2D3;" parent="ZC5gkvqko9c_njQ8mgT4-1" vertex="1">
                    <mxGeometry y="240" width="400" height="47" as="geometry"/>
                </mxCell>
                <mxCell id="ZC5gkvqko9c_njQ8mgT4-38" style="connectable=0;recursiveResize=0;whiteSpace=wrap;html=1;" parent="ZC5gkvqko9c_njQ8mgT4-37" vertex="1">
                    <mxGeometry width="199" height="47" as="geometry">
                        <mxRectangle width="199" height="47" as="alternateBounds"/>
                    </mxGeometry>
                </mxCell>
                <mxCell id="ZC5gkvqko9c_njQ8mgT4-39" value="La aplicacion gestiona los mensajes entre ambos" style="connectable=0;recursiveResize=0;whiteSpace=wrap;html=1;" parent="ZC5gkvqko9c_njQ8mgT4-37" vertex="1">
                    <mxGeometry x="199" width="201" height="47" as="geometry">
                        <mxRectangle width="201" height="47" as="alternateBounds"/>
                    </mxGeometry>
                </mxCell>
                <mxCell id="ZC5gkvqko9c_njQ8mgT4-34" style="shape=tableRow;horizontal=0;startSize=0;swimlaneHead=0;swimlaneBody=0;top=0;left=0;bottom=0;right=0;dropTarget=0;collapsible=0;recursiveResize=0;expand=0;fontStyle=1;strokeColor=inherit;fillColor=#EAF2D3;" parent="ZC5gkvqko9c_njQ8mgT4-1" vertex="1">
                    <mxGeometry y="287" width="400" height="47" as="geometry"/>
                </mxCell>
                <mxCell id="ZC5gkvqko9c_njQ8mgT4-35" value="En el mismo chat el dueño puede decir que se hizo negocio entre la casa, el y el cliente" style="connectable=0;recursiveResize=0;strokeColor=inherit;fillColor=inherit;whiteSpace=wrap;html=1;" parent="ZC5gkvqko9c_njQ8mgT4-34" vertex="1">
                    <mxGeometry width="199" height="47" as="geometry">
                        <mxRectangle width="199" height="47" as="alternateBounds"/>
                    </mxGeometry>
                </mxCell>
                <mxCell id="ZC5gkvqko9c_njQ8mgT4-36" style="connectable=0;recursiveResize=0;strokeColor=inherit;fillColor=inherit;whiteSpace=wrap;html=1;" parent="ZC5gkvqko9c_njQ8mgT4-34" vertex="1">
                    <mxGeometry x="199" width="201" height="47" as="geometry">
                        <mxRectangle width="201" height="47" as="alternateBounds"/>
                    </mxGeometry>
                </mxCell>
                <mxCell id="ZC5gkvqko9c_njQ8mgT4-31" style="shape=tableRow;horizontal=0;startSize=0;swimlaneHead=0;swimlaneBody=0;top=0;left=0;bottom=0;right=0;dropTarget=0;collapsible=0;recursiveResize=0;expand=0;fontStyle=1;strokeColor=inherit;fillColor=#EAF2D3;" parent="ZC5gkvqko9c_njQ8mgT4-1" vertex="1">
                    <mxGeometry y="334" width="400" height="47" as="geometry"/>
                </mxCell>
                <mxCell id="ZC5gkvqko9c_njQ8mgT4-32" value="" style="connectable=0;recursiveResize=0;whiteSpace=wrap;html=1;" parent="ZC5gkvqko9c_njQ8mgT4-31" vertex="1">
                    <mxGeometry width="199" height="47" as="geometry">
                        <mxRectangle width="199" height="47" as="alternateBounds"/>
                    </mxGeometry>
                </mxCell>
                <mxCell id="ZC5gkvqko9c_njQ8mgT4-33" value="Aparece&amp;nbsp; el formulario preguntando el precio" style="connectable=0;recursiveResize=0;whiteSpace=wrap;html=1;" parent="ZC5gkvqko9c_njQ8mgT4-31" vertex="1">
                    <mxGeometry x="199" width="201" height="47" as="geometry">
                        <mxRectangle width="201" height="47" as="alternateBounds"/>
                    </mxGeometry>
                </mxCell>
                <mxCell id="ZC5gkvqko9c_njQ8mgT4-28" style="shape=tableRow;horizontal=0;startSize=0;swimlaneHead=0;swimlaneBody=0;top=0;left=0;bottom=0;right=0;dropTarget=0;collapsible=0;recursiveResize=0;expand=0;fontStyle=1;strokeColor=inherit;fillColor=#EAF2D3;" parent="ZC5gkvqko9c_njQ8mgT4-1" vertex="1">
                    <mxGeometry y="381" width="400" height="47" as="geometry"/>
                </mxCell>
                <mxCell id="ZC5gkvqko9c_njQ8mgT4-29" value="El dueño llena el formulario" style="connectable=0;recursiveResize=0;strokeColor=inherit;fillColor=inherit;whiteSpace=wrap;html=1;" parent="ZC5gkvqko9c_njQ8mgT4-28" vertex="1">
                    <mxGeometry width="199" height="47" as="geometry">
                        <mxRectangle width="199" height="47" as="alternateBounds"/>
                    </mxGeometry>
                </mxCell>
                <mxCell id="ZC5gkvqko9c_njQ8mgT4-30" value="" style="connectable=0;recursiveResize=0;strokeColor=inherit;fillColor=inherit;whiteSpace=wrap;html=1;" parent="ZC5gkvqko9c_njQ8mgT4-28" vertex="1">
                    <mxGeometry x="199" width="201" height="47" as="geometry">
                        <mxRectangle width="201" height="47" as="alternateBounds"/>
                    </mxGeometry>
                </mxCell>
                <mxCell id="ZC5gkvqko9c_njQ8mgT4-25" style="shape=tableRow;horizontal=0;startSize=0;swimlaneHead=0;swimlaneBody=0;top=0;left=0;bottom=0;right=0;dropTarget=0;collapsible=0;recursiveResize=0;expand=0;fontStyle=1;strokeColor=inherit;fillColor=#EAF2D3;" parent="ZC5gkvqko9c_njQ8mgT4-1" vertex="1">
                    <mxGeometry y="428" width="400" height="42" as="geometry"/>
                </mxCell>
                <mxCell id="ZC5gkvqko9c_njQ8mgT4-26" style="connectable=0;recursiveResize=0;whiteSpace=wrap;html=1;" parent="ZC5gkvqko9c_njQ8mgT4-25" vertex="1">
                    <mxGeometry width="199" height="42" as="geometry">
                        <mxRectangle width="199" height="42" as="alternateBounds"/>
                    </mxGeometry>
                </mxCell>
                <mxCell id="ZC5gkvqko9c_njQ8mgT4-27" value="&lt;span style=&quot;color: rgb(0, 0, 0); font-family: Helvetica; font-size: 12px; font-style: normal; font-variant-ligatures: normal; font-variant-caps: normal; font-weight: 400; letter-spacing: normal; orphans: 2; text-align: center; text-indent: 0px; text-transform: none; widows: 2; word-spacing: 0px; -webkit-text-stroke-width: 0px; white-space: normal; text-decoration-thickness: initial; text-decoration-style: initial; text-decoration-color: initial; float: none; display: inline !important;&quot;&gt;La aplicacion hace el registro y &quot;ciera&quot; la casa y crea el ariendo&lt;/span&gt;" style="connectable=0;recursiveResize=0;whiteSpace=wrap;html=1;" parent="ZC5gkvqko9c_njQ8mgT4-25" vertex="1">
                    <mxGeometry x="199" width="201" height="42" as="geometry">
                        <mxRectangle width="201" height="42" as="alternateBounds"/>
                    </mxGeometry>
                </mxCell>
                <mxCell id="jA2UE5slMQ7CVzLZvwPn-1" value="Negociar el Aparta estudio" style="text;html=1;align=center;verticalAlign=middle;whiteSpace=wrap;rounded=0;" parent="1" vertex="1">
                    <mxGeometry x="320" y="40" width="160" height="30" as="geometry"/>
                </mxCell>
                <mxCell id="jA2UE5slMQ7CVzLZvwPn-2" value="Publicar mi aparta estudio" style="text;html=1;align=center;verticalAlign=middle;whiteSpace=wrap;rounded=0;" parent="1" vertex="1">
                    <mxGeometry x="250" y="890" width="160" height="30" as="geometry"/>
                </mxCell>
                <mxCell id="jA2UE5slMQ7CVzLZvwPn-4" value="Gerenciar mi aparta estudio" style="text;html=1;align=center;verticalAlign=middle;whiteSpace=wrap;rounded=0;" parent="1" vertex="1">
                    <mxGeometry x="290" y="1320" width="160" height="30" as="geometry"/>
                </mxCell>
                <mxCell id="jA2UE5slMQ7CVzLZvwPn-13" style="edgeStyle=orthogonalEdgeStyle;rounded=0;orthogonalLoop=1;jettySize=auto;html=1;entryX=0;entryY=0.5;entryDx=0;entryDy=0;" parent="1" source="jA2UE5slMQ7CVzLZvwPn-10" target="jA2UE5slMQ7CVzLZvwPn-11" edge="1">
                    <mxGeometry relative="1" as="geometry"/>
                </mxCell>
                <mxCell id="jA2UE5slMQ7CVzLZvwPn-10" value="OWNER" style="shape=umlActor;verticalLabelPosition=bottom;verticalAlign=top;html=1;" parent="1" vertex="1">
                    <mxGeometry x="170" y="970" width="30" height="60" as="geometry"/>
                </mxCell>
                <mxCell id="jA2UE5slMQ7CVzLZvwPn-11" value="Publicar mi ApartaEstudio" style="ellipse;whiteSpace=wrap;html=1;" parent="1" vertex="1">
                    <mxGeometry x="300" y="965" width="140" height="70" as="geometry"/>
                </mxCell>
                <mxCell id="jA2UE5slMQ7CVzLZvwPn-14" style="edgeStyle=orthogonalEdgeStyle;rounded=0;orthogonalLoop=1;jettySize=auto;html=1;exitX=1;exitY=0.5;exitDx=0;exitDy=0;entryX=0;entryY=0.5;entryDx=0;entryDy=0;" parent="1" source="jA2UE5slMQ7CVzLZvwPn-11" target="jA2UE5slMQ7CVzLZvwPn-12" edge="1">
                    <mxGeometry relative="1" as="geometry">
                        <mxPoint x="490" y="910" as="targetPoint"/>
                    </mxGeometry>
                </mxCell>
                <mxCell id="jA2UE5slMQ7CVzLZvwPn-15" value="Include" style="edgeLabel;html=1;align=center;verticalAlign=middle;resizable=0;points=[];" parent="jA2UE5slMQ7CVzLZvwPn-14" vertex="1" connectable="0">
                    <mxGeometry x="0.0433" y="-1" relative="1" as="geometry">
                        <mxPoint as="offset"/>
                    </mxGeometry>
                </mxCell>
                <mxCell id="jA2UE5slMQ7CVzLZvwPn-12" value="Poner Especificaciones del ApartaEstudio" style="ellipse;whiteSpace=wrap;html=1;" parent="1" vertex="1">
                    <mxGeometry x="560" y="965" width="140" height="70" as="geometry"/>
                </mxCell>
                <mxCell id="jA2UE5slMQ7CVzLZvwPn-16" value="Assets" style="childLayout=tableLayout;recursiveResize=0;strokeColor=#98bf21;fillColor=#A7C942;shadow=1;" parent="1" vertex="1">
                    <mxGeometry x="240" y="1050" width="400" height="240" as="geometry"/>
                </mxCell>
                <mxCell id="jA2UE5slMQ7CVzLZvwPn-17" style="shape=tableRow;horizontal=0;startSize=0;swimlaneHead=0;swimlaneBody=0;top=0;left=0;bottom=0;right=0;dropTarget=0;collapsible=0;recursiveResize=0;expand=0;fontStyle=0;strokeColor=inherit;fillColor=#ffffff;" parent="jA2UE5slMQ7CVzLZvwPn-16" vertex="1">
                    <mxGeometry width="400" height="49" as="geometry"/>
                </mxCell>
                <mxCell id="jA2UE5slMQ7CVzLZvwPn-18" value="Actores" style="connectable=0;recursiveResize=0;strokeColor=inherit;fillColor=#A7C942;align=center;fontStyle=1;fontColor=#FFFFFF;html=1;" parent="jA2UE5slMQ7CVzLZvwPn-17" vertex="1">
                    <mxGeometry width="199" height="49" as="geometry">
                        <mxRectangle width="199" height="49" as="alternateBounds"/>
                    </mxGeometry>
                </mxCell>
                <mxCell id="jA2UE5slMQ7CVzLZvwPn-19" value="Sistema" style="connectable=0;recursiveResize=0;strokeColor=inherit;fillColor=#A7C942;align=center;fontStyle=1;fontColor=#FFFFFF;html=1;" parent="jA2UE5slMQ7CVzLZvwPn-17" vertex="1">
                    <mxGeometry x="199" width="201" height="49" as="geometry">
                        <mxRectangle width="201" height="49" as="alternateBounds"/>
                    </mxGeometry>
                </mxCell>
                <mxCell id="jA2UE5slMQ7CVzLZvwPn-20" value="" style="shape=tableRow;horizontal=0;startSize=0;swimlaneHead=0;swimlaneBody=0;top=0;left=0;bottom=0;right=0;dropTarget=0;collapsible=0;recursiveResize=0;expand=0;fontStyle=0;strokeColor=inherit;fillColor=#ffffff;" parent="jA2UE5slMQ7CVzLZvwPn-16" vertex="1">
                    <mxGeometry y="49" width="400" height="48" as="geometry"/>
                </mxCell>
                <mxCell id="jA2UE5slMQ7CVzLZvwPn-21" value="El dueño en su perfil va a la opcion de agregar" style="connectable=0;recursiveResize=0;strokeColor=inherit;fillColor=inherit;align=center;whiteSpace=wrap;html=1;" parent="jA2UE5slMQ7CVzLZvwPn-20" vertex="1">
                    <mxGeometry width="199" height="48" as="geometry">
                        <mxRectangle width="199" height="48" as="alternateBounds"/>
                    </mxGeometry>
                </mxCell>
                <mxCell id="jA2UE5slMQ7CVzLZvwPn-22" value="" style="connectable=0;recursiveResize=0;strokeColor=inherit;fillColor=inherit;align=center;whiteSpace=wrap;html=1;" parent="jA2UE5slMQ7CVzLZvwPn-20" vertex="1">
                    <mxGeometry x="199" width="201" height="48" as="geometry">
                        <mxRectangle width="201" height="48" as="alternateBounds"/>
                    </mxGeometry>
                </mxCell>
                <mxCell id="jA2UE5slMQ7CVzLZvwPn-23" value="" style="shape=tableRow;horizontal=0;startSize=0;swimlaneHead=0;swimlaneBody=0;top=0;left=0;bottom=0;right=0;dropTarget=0;collapsible=0;recursiveResize=0;expand=0;fontStyle=1;strokeColor=inherit;fillColor=#EAF2D3;" parent="jA2UE5slMQ7CVzLZvwPn-16" vertex="1">
                    <mxGeometry y="97" width="400" height="47" as="geometry"/>
                </mxCell>
                <mxCell id="jA2UE5slMQ7CVzLZvwPn-24" value="" style="connectable=0;recursiveResize=0;strokeColor=inherit;fillColor=inherit;whiteSpace=wrap;html=1;" parent="jA2UE5slMQ7CVzLZvwPn-23" vertex="1">
                    <mxGeometry width="199" height="47" as="geometry">
                        <mxRectangle width="199" height="47" as="alternateBounds"/>
                    </mxGeometry>
                </mxCell>
                <mxCell id="jA2UE5slMQ7CVzLZvwPn-25" value="El sistemas muestra un formulario para poner su aparta estudio" style="connectable=0;recursiveResize=0;strokeColor=inherit;fillColor=inherit;whiteSpace=wrap;html=1;" parent="jA2UE5slMQ7CVzLZvwPn-23" vertex="1">
                    <mxGeometry x="199" width="201" height="47" as="geometry">
                        <mxRectangle width="201" height="47" as="alternateBounds"/>
                    </mxGeometry>
                </mxCell>
                <mxCell id="jA2UE5slMQ7CVzLZvwPn-26" value="" style="shape=tableRow;horizontal=0;startSize=0;swimlaneHead=0;swimlaneBody=0;top=0;left=0;bottom=0;right=0;dropTarget=0;collapsible=0;recursiveResize=0;expand=0;fontStyle=0;strokeColor=inherit;fillColor=#ffffff;" parent="jA2UE5slMQ7CVzLZvwPn-16" vertex="1">
                    <mxGeometry y="144" width="400" height="49" as="geometry"/>
                </mxCell>
                <mxCell id="jA2UE5slMQ7CVzLZvwPn-27" value="El cliente llena el formulario" style="connectable=0;recursiveResize=0;strokeColor=inherit;fillColor=inherit;fontStyle=0;align=center;whiteSpace=wrap;html=1;" parent="jA2UE5slMQ7CVzLZvwPn-26" vertex="1">
                    <mxGeometry width="199" height="49" as="geometry">
                        <mxRectangle width="199" height="49" as="alternateBounds"/>
                    </mxGeometry>
                </mxCell>
                <mxCell id="jA2UE5slMQ7CVzLZvwPn-28" value="" style="connectable=0;recursiveResize=0;strokeColor=inherit;fillColor=inherit;fontStyle=0;align=center;whiteSpace=wrap;html=1;" parent="jA2UE5slMQ7CVzLZvwPn-26" vertex="1">
                    <mxGeometry x="199" width="201" height="49" as="geometry">
                        <mxRectangle width="201" height="49" as="alternateBounds"/>
                    </mxGeometry>
                </mxCell>
                <mxCell id="jA2UE5slMQ7CVzLZvwPn-29" value="" style="shape=tableRow;horizontal=0;startSize=0;swimlaneHead=0;swimlaneBody=0;top=0;left=0;bottom=0;right=0;dropTarget=0;collapsible=0;recursiveResize=0;expand=0;fontStyle=1;strokeColor=inherit;fillColor=#EAF2D3;" parent="jA2UE5slMQ7CVzLZvwPn-16" vertex="1">
                    <mxGeometry y="193" width="400" height="47" as="geometry"/>
                </mxCell>
                <mxCell id="jA2UE5slMQ7CVzLZvwPn-30" value="" style="connectable=0;recursiveResize=0;strokeColor=inherit;fillColor=inherit;whiteSpace=wrap;html=1;" parent="jA2UE5slMQ7CVzLZvwPn-29" vertex="1">
                    <mxGeometry width="199" height="47" as="geometry">
                        <mxRectangle width="199" height="47" as="alternateBounds"/>
                    </mxGeometry>
                </mxCell>
                <mxCell id="jA2UE5slMQ7CVzLZvwPn-31" value="El sistema guarda la informacion y pone el aparta estuduio como disponible" style="connectable=0;recursiveResize=0;strokeColor=inherit;fillColor=inherit;whiteSpace=wrap;html=1;" parent="jA2UE5slMQ7CVzLZvwPn-29" vertex="1">
                    <mxGeometry x="199" width="201" height="47" as="geometry">
                        <mxRectangle width="201" height="47" as="alternateBounds"/>
                    </mxGeometry>
                </mxCell>
                <mxCell id="jA2UE5slMQ7CVzLZvwPn-47" style="edgeStyle=orthogonalEdgeStyle;rounded=0;orthogonalLoop=1;jettySize=auto;html=1;entryX=0;entryY=0.5;entryDx=0;entryDy=0;" parent="1" source="jA2UE5slMQ7CVzLZvwPn-48" target="jA2UE5slMQ7CVzLZvwPn-49" edge="1">
                    <mxGeometry relative="1" as="geometry"/>
                </mxCell>
                <mxCell id="jA2UE5slMQ7CVzLZvwPn-48" value="OWNER" style="shape=umlActor;verticalLabelPosition=bottom;verticalAlign=top;html=1;" parent="1" vertex="1">
                    <mxGeometry x="185" y="1395" width="30" height="60" as="geometry"/>
                </mxCell>
                <mxCell id="jA2UE5slMQ7CVzLZvwPn-51" style="edgeStyle=orthogonalEdgeStyle;rounded=0;orthogonalLoop=1;jettySize=auto;html=1;exitX=1;exitY=0.5;exitDx=0;exitDy=0;entryX=0;entryY=0.5;entryDx=0;entryDy=0;" parent="1" source="jA2UE5slMQ7CVzLZvwPn-49" target="jA2UE5slMQ7CVzLZvwPn-50" edge="1">
                    <mxGeometry relative="1" as="geometry"/>
                </mxCell>
                <mxCell id="jA2UE5slMQ7CVzLZvwPn-52" value="Includ" style="edgeLabel;html=1;align=center;verticalAlign=middle;resizable=0;points=[];" parent="jA2UE5slMQ7CVzLZvwPn-51" vertex="1" connectable="0">
                    <mxGeometry x="-0.16" y="-1" relative="1" as="geometry">
                        <mxPoint as="offset"/>
                    </mxGeometry>
                </mxCell>
                <mxCell id="jA2UE5slMQ7CVzLZvwPn-49" value="&lt;br&gt;Gerenciar el Aparta estudio" style="ellipse;whiteSpace=wrap;html=1;" parent="1" vertex="1">
                    <mxGeometry x="315" y="1390" width="140" height="70" as="geometry"/>
                </mxCell>
                <mxCell id="jA2UE5slMQ7CVzLZvwPn-50" value="Mostrar Todos los aparta Estudio como tabla" style="ellipse;whiteSpace=wrap;html=1;" parent="1" vertex="1">
                    <mxGeometry x="525" y="1390" width="140" height="70" as="geometry"/>
                </mxCell>
                <mxCell id="jA2UE5slMQ7CVzLZvwPn-53" value="Assets" style="childLayout=tableLayout;recursiveResize=0;strokeColor=#98bf21;fillColor=#A7C942;shadow=1;" parent="1" vertex="1">
                    <mxGeometry x="10" y="1550" width="400" height="334" as="geometry"/>
                </mxCell>
                <mxCell id="jA2UE5slMQ7CVzLZvwPn-54" style="shape=tableRow;horizontal=0;startSize=0;swimlaneHead=0;swimlaneBody=0;top=0;left=0;bottom=0;right=0;dropTarget=0;collapsible=0;recursiveResize=0;expand=0;fontStyle=0;strokeColor=inherit;fillColor=#ffffff;" parent="jA2UE5slMQ7CVzLZvwPn-53" vertex="1">
                    <mxGeometry width="400" height="49" as="geometry"/>
                </mxCell>
                <mxCell id="jA2UE5slMQ7CVzLZvwPn-55" value="Actores" style="connectable=0;recursiveResize=0;strokeColor=inherit;fillColor=#A7C942;align=center;fontStyle=1;fontColor=#FFFFFF;html=1;" parent="jA2UE5slMQ7CVzLZvwPn-54" vertex="1">
                    <mxGeometry width="199" height="49" as="geometry">
                        <mxRectangle width="199" height="49" as="alternateBounds"/>
                    </mxGeometry>
                </mxCell>
                <mxCell id="jA2UE5slMQ7CVzLZvwPn-56" value="Sistema" style="connectable=0;recursiveResize=0;strokeColor=inherit;fillColor=#A7C942;align=center;fontStyle=1;fontColor=#FFFFFF;html=1;" parent="jA2UE5slMQ7CVzLZvwPn-54" vertex="1">
                    <mxGeometry x="199" width="201" height="49" as="geometry">
                        <mxRectangle width="201" height="49" as="alternateBounds"/>
                    </mxGeometry>
                </mxCell>
                <mxCell id="jA2UE5slMQ7CVzLZvwPn-57" value="" style="shape=tableRow;horizontal=0;startSize=0;swimlaneHead=0;swimlaneBody=0;top=0;left=0;bottom=0;right=0;dropTarget=0;collapsible=0;recursiveResize=0;expand=0;fontStyle=0;strokeColor=inherit;fillColor=#ffffff;" parent="jA2UE5slMQ7CVzLZvwPn-53" vertex="1">
                    <mxGeometry y="49" width="400" height="48" as="geometry"/>
                </mxCell>
                <mxCell id="jA2UE5slMQ7CVzLZvwPn-58" value="El dueño en su perfil va a la opcion de gerenciar" style="connectable=0;recursiveResize=0;strokeColor=inherit;fillColor=inherit;align=center;whiteSpace=wrap;html=1;" parent="jA2UE5slMQ7CVzLZvwPn-57" vertex="1">
                    <mxGeometry width="199" height="48" as="geometry">
                        <mxRectangle width="199" height="48" as="alternateBounds"/>
                    </mxGeometry>
                </mxCell>
                <mxCell id="jA2UE5slMQ7CVzLZvwPn-59" value="" style="connectable=0;recursiveResize=0;strokeColor=inherit;fillColor=inherit;align=center;whiteSpace=wrap;html=1;" parent="jA2UE5slMQ7CVzLZvwPn-57" vertex="1">
                    <mxGeometry x="199" width="201" height="48" as="geometry">
                        <mxRectangle width="201" height="48" as="alternateBounds"/>
                    </mxGeometry>
                </mxCell>
                <mxCell id="jA2UE5slMQ7CVzLZvwPn-60" value="" style="shape=tableRow;horizontal=0;startSize=0;swimlaneHead=0;swimlaneBody=0;top=0;left=0;bottom=0;right=0;dropTarget=0;collapsible=0;recursiveResize=0;expand=0;fontStyle=1;strokeColor=inherit;fillColor=#EAF2D3;" parent="jA2UE5slMQ7CVzLZvwPn-53" vertex="1">
                    <mxGeometry y="97" width="400" height="47" as="geometry"/>
                </mxCell>
                <mxCell id="jA2UE5slMQ7CVzLZvwPn-61" value="" style="connectable=0;recursiveResize=0;strokeColor=inherit;fillColor=inherit;whiteSpace=wrap;html=1;" parent="jA2UE5slMQ7CVzLZvwPn-60" vertex="1">
                    <mxGeometry width="199" height="47" as="geometry">
                        <mxRectangle width="199" height="47" as="alternateBounds"/>
                    </mxGeometry>
                </mxCell>
                <mxCell id="jA2UE5slMQ7CVzLZvwPn-62" value="El sistema muestra una tabla com todas las informacion del los aparta estudios" style="connectable=0;recursiveResize=0;strokeColor=inherit;fillColor=inherit;whiteSpace=wrap;html=1;" parent="jA2UE5slMQ7CVzLZvwPn-60" vertex="1">
                    <mxGeometry x="199" width="201" height="47" as="geometry">
                        <mxRectangle width="201" height="47" as="alternateBounds"/>
                    </mxGeometry>
                </mxCell>
                <mxCell id="jA2UE5slMQ7CVzLZvwPn-63" value="" style="shape=tableRow;horizontal=0;startSize=0;swimlaneHead=0;swimlaneBody=0;top=0;left=0;bottom=0;right=0;dropTarget=0;collapsible=0;recursiveResize=0;expand=0;fontStyle=0;strokeColor=inherit;fillColor=#ffffff;" parent="jA2UE5slMQ7CVzLZvwPn-53" vertex="1">
                    <mxGeometry y="144" width="400" height="49" as="geometry"/>
                </mxCell>
                <mxCell id="jA2UE5slMQ7CVzLZvwPn-64" value="El dueño elije opcion de modificar" style="connectable=0;recursiveResize=0;strokeColor=inherit;fillColor=inherit;fontStyle=0;align=center;whiteSpace=wrap;html=1;" parent="jA2UE5slMQ7CVzLZvwPn-63" vertex="1">
                    <mxGeometry width="199" height="49" as="geometry">
                        <mxRectangle width="199" height="49" as="alternateBounds"/>
                    </mxGeometry>
                </mxCell>
                <mxCell id="jA2UE5slMQ7CVzLZvwPn-65" value="" style="connectable=0;recursiveResize=0;strokeColor=inherit;fillColor=inherit;fontStyle=0;align=center;whiteSpace=wrap;html=1;" parent="jA2UE5slMQ7CVzLZvwPn-63" vertex="1">
                    <mxGeometry x="199" width="201" height="49" as="geometry">
                        <mxRectangle width="201" height="49" as="alternateBounds"/>
                    </mxGeometry>
                </mxCell>
                <mxCell id="jA2UE5slMQ7CVzLZvwPn-66" value="" style="shape=tableRow;horizontal=0;startSize=0;swimlaneHead=0;swimlaneBody=0;top=0;left=0;bottom=0;right=0;dropTarget=0;collapsible=0;recursiveResize=0;expand=0;fontStyle=1;strokeColor=inherit;fillColor=#EAF2D3;" parent="jA2UE5slMQ7CVzLZvwPn-53" vertex="1">
                    <mxGeometry y="193" width="400" height="47" as="geometry"/>
                </mxCell>
                <mxCell id="jA2UE5slMQ7CVzLZvwPn-67" value="" style="connectable=0;recursiveResize=0;strokeColor=inherit;fillColor=inherit;whiteSpace=wrap;html=1;" parent="jA2UE5slMQ7CVzLZvwPn-66" vertex="1">
                    <mxGeometry width="199" height="47" as="geometry">
                        <mxRectangle width="199" height="47" as="alternateBounds"/>
                    </mxGeometry>
                </mxCell>
                <mxCell id="jA2UE5slMQ7CVzLZvwPn-68" value="El sistema muestra un formulario para que el dueño pueda modificar su aparta estudio" style="connectable=0;recursiveResize=0;strokeColor=inherit;fillColor=inherit;whiteSpace=wrap;html=1;" parent="jA2UE5slMQ7CVzLZvwPn-66" vertex="1">
                    <mxGeometry x="199" width="201" height="47" as="geometry">
                        <mxRectangle width="201" height="47" as="alternateBounds"/>
                    </mxGeometry>
                </mxCell>
                <mxCell id="jA2UE5slMQ7CVzLZvwPn-72" style="shape=tableRow;horizontal=0;startSize=0;swimlaneHead=0;swimlaneBody=0;top=0;left=0;bottom=0;right=0;dropTarget=0;collapsible=0;recursiveResize=0;expand=0;fontStyle=1;strokeColor=inherit;fillColor=#EAF2D3;" parent="jA2UE5slMQ7CVzLZvwPn-53" vertex="1">
                    <mxGeometry y="240" width="400" height="47" as="geometry"/>
                </mxCell>
                <mxCell id="jA2UE5slMQ7CVzLZvwPn-73" value="El dueño llena el formulario" style="connectable=0;recursiveResize=0;whiteSpace=wrap;html=1;" parent="jA2UE5slMQ7CVzLZvwPn-72" vertex="1">
                    <mxGeometry width="199" height="47" as="geometry">
                        <mxRectangle width="199" height="47" as="alternateBounds"/>
                    </mxGeometry>
                </mxCell>
                <mxCell id="jA2UE5slMQ7CVzLZvwPn-74" style="connectable=0;recursiveResize=0;whiteSpace=wrap;html=1;" parent="jA2UE5slMQ7CVzLZvwPn-72" vertex="1">
                    <mxGeometry x="199" width="201" height="47" as="geometry">
                        <mxRectangle width="201" height="47" as="alternateBounds"/>
                    </mxGeometry>
                </mxCell>
                <mxCell id="jA2UE5slMQ7CVzLZvwPn-69" style="shape=tableRow;horizontal=0;startSize=0;swimlaneHead=0;swimlaneBody=0;top=0;left=0;bottom=0;right=0;dropTarget=0;collapsible=0;recursiveResize=0;expand=0;fontStyle=1;strokeColor=inherit;fillColor=#EAF2D3;" parent="jA2UE5slMQ7CVzLZvwPn-53" vertex="1">
                    <mxGeometry y="287" width="400" height="47" as="geometry"/>
                </mxCell>
                <mxCell id="jA2UE5slMQ7CVzLZvwPn-70" style="connectable=0;recursiveResize=0;strokeColor=inherit;fillColor=inherit;whiteSpace=wrap;html=1;" parent="jA2UE5slMQ7CVzLZvwPn-69" vertex="1">
                    <mxGeometry width="199" height="47" as="geometry">
                        <mxRectangle width="199" height="47" as="alternateBounds"/>
                    </mxGeometry>
                </mxCell>
                <mxCell id="jA2UE5slMQ7CVzLZvwPn-71" value="El sistema guarda la informacion en base de datos" style="connectable=0;recursiveResize=0;strokeColor=inherit;fillColor=inherit;whiteSpace=wrap;html=1;" parent="jA2UE5slMQ7CVzLZvwPn-69" vertex="1">
                    <mxGeometry x="199" width="201" height="47" as="geometry">
                        <mxRectangle width="201" height="47" as="alternateBounds"/>
                    </mxGeometry>
                </mxCell>
                <mxCell id="jA2UE5slMQ7CVzLZvwPn-75" value="Assets" style="childLayout=tableLayout;recursiveResize=0;strokeColor=#98bf21;fillColor=#A7C942;shadow=1;" parent="1" vertex="1">
                    <mxGeometry x="440" y="1550" width="400" height="334" as="geometry"/>
                </mxCell>
                <mxCell id="jA2UE5slMQ7CVzLZvwPn-76" style="shape=tableRow;horizontal=0;startSize=0;swimlaneHead=0;swimlaneBody=0;top=0;left=0;bottom=0;right=0;dropTarget=0;collapsible=0;recursiveResize=0;expand=0;fontStyle=0;strokeColor=inherit;fillColor=#ffffff;" parent="jA2UE5slMQ7CVzLZvwPn-75" vertex="1">
                    <mxGeometry width="400" height="49" as="geometry"/>
                </mxCell>
                <mxCell id="jA2UE5slMQ7CVzLZvwPn-77" value="Actores" style="connectable=0;recursiveResize=0;strokeColor=inherit;fillColor=#A7C942;align=center;fontStyle=1;fontColor=#FFFFFF;html=1;" parent="jA2UE5slMQ7CVzLZvwPn-76" vertex="1">
                    <mxGeometry width="199" height="49" as="geometry">
                        <mxRectangle width="199" height="49" as="alternateBounds"/>
                    </mxGeometry>
                </mxCell>
                <mxCell id="jA2UE5slMQ7CVzLZvwPn-78" value="Sistema" style="connectable=0;recursiveResize=0;strokeColor=inherit;fillColor=#A7C942;align=center;fontStyle=1;fontColor=#FFFFFF;html=1;" parent="jA2UE5slMQ7CVzLZvwPn-76" vertex="1">
                    <mxGeometry x="199" width="201" height="49" as="geometry">
                        <mxRectangle width="201" height="49" as="alternateBounds"/>
                    </mxGeometry>
                </mxCell>
                <mxCell id="jA2UE5slMQ7CVzLZvwPn-79" value="" style="shape=tableRow;horizontal=0;startSize=0;swimlaneHead=0;swimlaneBody=0;top=0;left=0;bottom=0;right=0;dropTarget=0;collapsible=0;recursiveResize=0;expand=0;fontStyle=0;strokeColor=inherit;fillColor=#ffffff;" parent="jA2UE5slMQ7CVzLZvwPn-75" vertex="1">
                    <mxGeometry y="49" width="400" height="48" as="geometry"/>
                </mxCell>
                <mxCell id="jA2UE5slMQ7CVzLZvwPn-80" value="El dueño en su perfil va a la opcion de gerenciar" style="connectable=0;recursiveResize=0;strokeColor=inherit;fillColor=inherit;align=center;whiteSpace=wrap;html=1;" parent="jA2UE5slMQ7CVzLZvwPn-79" vertex="1">
                    <mxGeometry width="199" height="48" as="geometry">
                        <mxRectangle width="199" height="48" as="alternateBounds"/>
                    </mxGeometry>
                </mxCell>
                <mxCell id="jA2UE5slMQ7CVzLZvwPn-81" value="" style="connectable=0;recursiveResize=0;strokeColor=inherit;fillColor=inherit;align=center;whiteSpace=wrap;html=1;" parent="jA2UE5slMQ7CVzLZvwPn-79" vertex="1">
                    <mxGeometry x="199" width="201" height="48" as="geometry">
                        <mxRectangle width="201" height="48" as="alternateBounds"/>
                    </mxGeometry>
                </mxCell>
                <mxCell id="jA2UE5slMQ7CVzLZvwPn-82" value="" style="shape=tableRow;horizontal=0;startSize=0;swimlaneHead=0;swimlaneBody=0;top=0;left=0;bottom=0;right=0;dropTarget=0;collapsible=0;recursiveResize=0;expand=0;fontStyle=1;strokeColor=inherit;fillColor=#EAF2D3;" parent="jA2UE5slMQ7CVzLZvwPn-75" vertex="1">
                    <mxGeometry y="97" width="400" height="47" as="geometry"/>
                </mxCell>
                <mxCell id="jA2UE5slMQ7CVzLZvwPn-83" value="" style="connectable=0;recursiveResize=0;strokeColor=inherit;fillColor=inherit;whiteSpace=wrap;html=1;" parent="jA2UE5slMQ7CVzLZvwPn-82" vertex="1">
                    <mxGeometry width="199" height="47" as="geometry">
                        <mxRectangle width="199" height="47" as="alternateBounds"/>
                    </mxGeometry>
                </mxCell>
                <mxCell id="jA2UE5slMQ7CVzLZvwPn-84" value="El sistema muestra una tabla com todas las informacion del los aparta estudios" style="connectable=0;recursiveResize=0;strokeColor=inherit;fillColor=inherit;whiteSpace=wrap;html=1;" parent="jA2UE5slMQ7CVzLZvwPn-82" vertex="1">
                    <mxGeometry x="199" width="201" height="47" as="geometry">
                        <mxRectangle width="201" height="47" as="alternateBounds"/>
                    </mxGeometry>
                </mxCell>
                <mxCell id="jA2UE5slMQ7CVzLZvwPn-85" value="" style="shape=tableRow;horizontal=0;startSize=0;swimlaneHead=0;swimlaneBody=0;top=0;left=0;bottom=0;right=0;dropTarget=0;collapsible=0;recursiveResize=0;expand=0;fontStyle=0;strokeColor=inherit;fillColor=#ffffff;" parent="jA2UE5slMQ7CVzLZvwPn-75" vertex="1">
                    <mxGeometry y="144" width="400" height="49" as="geometry"/>
                </mxCell>
                <mxCell id="jA2UE5slMQ7CVzLZvwPn-86" value="El dueño elije opcion de Deletar" style="connectable=0;recursiveResize=0;strokeColor=inherit;fillColor=inherit;fontStyle=0;align=center;whiteSpace=wrap;html=1;" parent="jA2UE5slMQ7CVzLZvwPn-85" vertex="1">
                    <mxGeometry width="199" height="49" as="geometry">
                        <mxRectangle width="199" height="49" as="alternateBounds"/>
                    </mxGeometry>
                </mxCell>
                <mxCell id="jA2UE5slMQ7CVzLZvwPn-87" value="" style="connectable=0;recursiveResize=0;strokeColor=inherit;fillColor=inherit;fontStyle=0;align=center;whiteSpace=wrap;html=1;" parent="jA2UE5slMQ7CVzLZvwPn-85" vertex="1">
                    <mxGeometry x="199" width="201" height="49" as="geometry">
                        <mxRectangle width="201" height="49" as="alternateBounds"/>
                    </mxGeometry>
                </mxCell>
                <mxCell id="jA2UE5slMQ7CVzLZvwPn-88" value="" style="shape=tableRow;horizontal=0;startSize=0;swimlaneHead=0;swimlaneBody=0;top=0;left=0;bottom=0;right=0;dropTarget=0;collapsible=0;recursiveResize=0;expand=0;fontStyle=1;strokeColor=inherit;fillColor=#EAF2D3;" parent="jA2UE5slMQ7CVzLZvwPn-75" vertex="1">
                    <mxGeometry y="193" width="400" height="47" as="geometry"/>
                </mxCell>
                <mxCell id="jA2UE5slMQ7CVzLZvwPn-89" value="" style="connectable=0;recursiveResize=0;strokeColor=inherit;fillColor=inherit;whiteSpace=wrap;html=1;" parent="jA2UE5slMQ7CVzLZvwPn-88" vertex="1">
                    <mxGeometry width="199" height="47" as="geometry">
                        <mxRectangle width="199" height="47" as="alternateBounds"/>
                    </mxGeometry>
                </mxCell>
                <mxCell id="jA2UE5slMQ7CVzLZvwPn-90" value="El sistema pregunta si esta seguro de eso" style="connectable=0;recursiveResize=0;strokeColor=inherit;fillColor=inherit;whiteSpace=wrap;html=1;" parent="jA2UE5slMQ7CVzLZvwPn-88" vertex="1">
                    <mxGeometry x="199" width="201" height="47" as="geometry">
                        <mxRectangle width="201" height="47" as="alternateBounds"/>
                    </mxGeometry>
                </mxCell>
                <mxCell id="jA2UE5slMQ7CVzLZvwPn-91" style="shape=tableRow;horizontal=0;startSize=0;swimlaneHead=0;swimlaneBody=0;top=0;left=0;bottom=0;right=0;dropTarget=0;collapsible=0;recursiveResize=0;expand=0;fontStyle=1;strokeColor=inherit;fillColor=#EAF2D3;" parent="jA2UE5slMQ7CVzLZvwPn-75" vertex="1">
                    <mxGeometry y="240" width="400" height="47" as="geometry"/>
                </mxCell>
                <mxCell id="jA2UE5slMQ7CVzLZvwPn-92" value="El dueño dice que si" style="connectable=0;recursiveResize=0;whiteSpace=wrap;html=1;" parent="jA2UE5slMQ7CVzLZvwPn-91" vertex="1">
                    <mxGeometry width="199" height="47" as="geometry">
                        <mxRectangle width="199" height="47" as="alternateBounds"/>
                    </mxGeometry>
                </mxCell>
                <mxCell id="jA2UE5slMQ7CVzLZvwPn-93" style="connectable=0;recursiveResize=0;whiteSpace=wrap;html=1;" parent="jA2UE5slMQ7CVzLZvwPn-91" vertex="1">
                    <mxGeometry x="199" width="201" height="47" as="geometry">
                        <mxRectangle width="201" height="47" as="alternateBounds"/>
                    </mxGeometry>
                </mxCell>
                <mxCell id="jA2UE5slMQ7CVzLZvwPn-94" style="shape=tableRow;horizontal=0;startSize=0;swimlaneHead=0;swimlaneBody=0;top=0;left=0;bottom=0;right=0;dropTarget=0;collapsible=0;recursiveResize=0;expand=0;fontStyle=1;strokeColor=inherit;fillColor=#EAF2D3;" parent="jA2UE5slMQ7CVzLZvwPn-75" vertex="1">
                    <mxGeometry y="287" width="400" height="47" as="geometry"/>
                </mxCell>
                <mxCell id="jA2UE5slMQ7CVzLZvwPn-95" style="connectable=0;recursiveResize=0;strokeColor=inherit;fillColor=inherit;whiteSpace=wrap;html=1;" parent="jA2UE5slMQ7CVzLZvwPn-94" vertex="1">
                    <mxGeometry width="199" height="47" as="geometry">
                        <mxRectangle width="199" height="47" as="alternateBounds"/>
                    </mxGeometry>
                </mxCell>
                <mxCell id="jA2UE5slMQ7CVzLZvwPn-96" value="El sistema apaga el aparta estudio de la base de datos" style="connectable=0;recursiveResize=0;strokeColor=inherit;fillColor=inherit;whiteSpace=wrap;html=1;" parent="jA2UE5slMQ7CVzLZvwPn-94" vertex="1">
                    <mxGeometry x="199" width="201" height="47" as="geometry">
                        <mxRectangle width="201" height="47" as="alternateBounds"/>
                    </mxGeometry>
                </mxCell>
                <mxCell id="jA2UE5slMQ7CVzLZvwPn-103" style="edgeStyle=orthogonalEdgeStyle;rounded=0;orthogonalLoop=1;jettySize=auto;html=1;entryX=0.5;entryY=1;entryDx=0;entryDy=0;" parent="1" source="jA2UE5slMQ7CVzLZvwPn-97" target="jA2UE5slMQ7CVzLZvwPn-50" edge="1">
                    <mxGeometry relative="1" as="geometry"/>
                </mxCell>
                <mxCell id="jA2UE5slMQ7CVzLZvwPn-106" value="Extends" style="edgeLabel;html=1;align=center;verticalAlign=middle;resizable=0;points=[];" parent="jA2UE5slMQ7CVzLZvwPn-103" vertex="1" connectable="0">
                    <mxGeometry x="-0.4267" y="3" relative="1" as="geometry">
                        <mxPoint as="offset"/>
                    </mxGeometry>
                </mxCell>
                <mxCell id="jA2UE5slMQ7CVzLZvwPn-97" value="Ver reviews" style="ellipse;whiteSpace=wrap;html=1;" parent="1" vertex="1">
                    <mxGeometry x="690" y="1480" width="140" height="70" as="geometry"/>
                </mxCell>
                <mxCell id="jA2UE5slMQ7CVzLZvwPn-102" style="edgeStyle=orthogonalEdgeStyle;rounded=0;orthogonalLoop=1;jettySize=auto;html=1;entryX=1;entryY=0.5;entryDx=0;entryDy=0;" parent="1" source="jA2UE5slMQ7CVzLZvwPn-98" target="jA2UE5slMQ7CVzLZvwPn-50" edge="1">
                    <mxGeometry relative="1" as="geometry"/>
                </mxCell>
                <mxCell id="jA2UE5slMQ7CVzLZvwPn-105" value="Extends" style="edgeLabel;html=1;align=center;verticalAlign=middle;resizable=0;points=[];" parent="jA2UE5slMQ7CVzLZvwPn-102" vertex="1" connectable="0">
                    <mxGeometry x="0.2042" y="2" relative="1" as="geometry">
                        <mxPoint as="offset"/>
                    </mxGeometry>
                </mxCell>
                <mxCell id="jA2UE5slMQ7CVzLZvwPn-98" value="Apagar" style="ellipse;whiteSpace=wrap;html=1;" parent="1" vertex="1">
                    <mxGeometry x="690" y="1395" width="140" height="70" as="geometry"/>
                </mxCell>
                <mxCell id="jA2UE5slMQ7CVzLZvwPn-101" style="edgeStyle=orthogonalEdgeStyle;rounded=0;orthogonalLoop=1;jettySize=auto;html=1;entryX=0.5;entryY=0;entryDx=0;entryDy=0;" parent="1" source="jA2UE5slMQ7CVzLZvwPn-99" target="jA2UE5slMQ7CVzLZvwPn-50" edge="1">
                    <mxGeometry relative="1" as="geometry"/>
                </mxCell>
                <mxCell id="jA2UE5slMQ7CVzLZvwPn-104" value="Extends" style="edgeLabel;html=1;align=center;verticalAlign=middle;resizable=0;points=[];" parent="jA2UE5slMQ7CVzLZvwPn-101" vertex="1" connectable="0">
                    <mxGeometry x="0.382" y="1" relative="1" as="geometry">
                        <mxPoint as="offset"/>
                    </mxGeometry>
                </mxCell>
                <mxCell id="jA2UE5slMQ7CVzLZvwPn-99" value="Modificar" style="ellipse;whiteSpace=wrap;html=1;" parent="1" vertex="1">
                    <mxGeometry x="690" y="1310" width="140" height="70" as="geometry"/>
                </mxCell>
                <mxCell id="jA2UE5slMQ7CVzLZvwPn-107" value="Assets" style="childLayout=tableLayout;recursiveResize=0;strokeColor=#98bf21;fillColor=#A7C942;shadow=1;" parent="1" vertex="1">
                    <mxGeometry x="10" y="1910" width="400" height="144" as="geometry"/>
                </mxCell>
                <mxCell id="jA2UE5slMQ7CVzLZvwPn-108" style="shape=tableRow;horizontal=0;startSize=0;swimlaneHead=0;swimlaneBody=0;top=0;left=0;bottom=0;right=0;dropTarget=0;collapsible=0;recursiveResize=0;expand=0;fontStyle=0;strokeColor=inherit;fillColor=#ffffff;" parent="jA2UE5slMQ7CVzLZvwPn-107" vertex="1">
                    <mxGeometry width="400" height="49" as="geometry"/>
                </mxCell>
                <mxCell id="jA2UE5slMQ7CVzLZvwPn-109" value="Actores" style="connectable=0;recursiveResize=0;strokeColor=inherit;fillColor=#A7C942;align=center;fontStyle=1;fontColor=#FFFFFF;html=1;" parent="jA2UE5slMQ7CVzLZvwPn-108" vertex="1">
                    <mxGeometry width="199" height="49" as="geometry">
                        <mxRectangle width="199" height="49" as="alternateBounds"/>
                    </mxGeometry>
                </mxCell>
                <mxCell id="jA2UE5slMQ7CVzLZvwPn-110" value="Sistema" style="connectable=0;recursiveResize=0;strokeColor=inherit;fillColor=#A7C942;align=center;fontStyle=1;fontColor=#FFFFFF;html=1;" parent="jA2UE5slMQ7CVzLZvwPn-108" vertex="1">
                    <mxGeometry x="199" width="201" height="49" as="geometry">
                        <mxRectangle width="201" height="49" as="alternateBounds"/>
                    </mxGeometry>
                </mxCell>
                <mxCell id="jA2UE5slMQ7CVzLZvwPn-111" value="" style="shape=tableRow;horizontal=0;startSize=0;swimlaneHead=0;swimlaneBody=0;top=0;left=0;bottom=0;right=0;dropTarget=0;collapsible=0;recursiveResize=0;expand=0;fontStyle=0;strokeColor=inherit;fillColor=#ffffff;" parent="jA2UE5slMQ7CVzLZvwPn-107" vertex="1">
                    <mxGeometry y="49" width="400" height="48" as="geometry"/>
                </mxCell>
                <mxCell id="jA2UE5slMQ7CVzLZvwPn-112" value="El dueño elije la opcion de ver las reviews" style="connectable=0;recursiveResize=0;strokeColor=inherit;fillColor=inherit;align=center;whiteSpace=wrap;html=1;" parent="jA2UE5slMQ7CVzLZvwPn-111" vertex="1">
                    <mxGeometry width="199" height="48" as="geometry">
                        <mxRectangle width="199" height="48" as="alternateBounds"/>
                    </mxGeometry>
                </mxCell>
                <mxCell id="jA2UE5slMQ7CVzLZvwPn-113" value="" style="connectable=0;recursiveResize=0;strokeColor=inherit;fillColor=inherit;align=center;whiteSpace=wrap;html=1;" parent="jA2UE5slMQ7CVzLZvwPn-111" vertex="1">
                    <mxGeometry x="199" width="201" height="48" as="geometry">
                        <mxRectangle width="201" height="48" as="alternateBounds"/>
                    </mxGeometry>
                </mxCell>
                <mxCell id="jA2UE5slMQ7CVzLZvwPn-114" value="" style="shape=tableRow;horizontal=0;startSize=0;swimlaneHead=0;swimlaneBody=0;top=0;left=0;bottom=0;right=0;dropTarget=0;collapsible=0;recursiveResize=0;expand=0;fontStyle=1;strokeColor=inherit;fillColor=#EAF2D3;" parent="jA2UE5slMQ7CVzLZvwPn-107" vertex="1">
                    <mxGeometry y="97" width="400" height="47" as="geometry"/>
                </mxCell>
                <mxCell id="jA2UE5slMQ7CVzLZvwPn-115" value="" style="connectable=0;recursiveResize=0;strokeColor=inherit;fillColor=inherit;whiteSpace=wrap;html=1;" parent="jA2UE5slMQ7CVzLZvwPn-114" vertex="1">
                    <mxGeometry width="199" height="47" as="geometry">
                        <mxRectangle width="199" height="47" as="alternateBounds"/>
                    </mxGeometry>
                </mxCell>
                <mxCell id="jA2UE5slMQ7CVzLZvwPn-116" value="El sistema muestra una tabla donde muestra el comentario y las estrellas dadas por los clientes" style="connectable=0;recursiveResize=0;strokeColor=inherit;fillColor=inherit;whiteSpace=wrap;html=1;" parent="jA2UE5slMQ7CVzLZvwPn-114" vertex="1">
                    <mxGeometry x="199" width="201" height="47" as="geometry">
                        <mxRectangle width="201" height="47" as="alternateBounds"/>
                    </mxGeometry>
                </mxCell>
                <mxCell id="jA2UE5slMQ7CVzLZvwPn-135" value="CLIENT" style="shape=umlActor;verticalLabelPosition=bottom;verticalAlign=top;html=1;" parent="1" vertex="1">
                    <mxGeometry x="260" y="2110" width="30" height="60" as="geometry"/>
                </mxCell>
                <mxCell id="jA2UE5slMQ7CVzLZvwPn-136" value="Buscar un Aparta Estudio" style="text;html=1;align=center;verticalAlign=middle;whiteSpace=wrap;rounded=0;" parent="1" vertex="1">
                    <mxGeometry x="330" y="2070" width="160" height="30" as="geometry"/>
                </mxCell>
                <mxCell id="jA2UE5slMQ7CVzLZvwPn-139" style="edgeStyle=orthogonalEdgeStyle;rounded=0;orthogonalLoop=1;jettySize=auto;html=1;entryX=1;entryY=0.5;entryDx=0;entryDy=0;exitX=0;exitY=0.5;exitDx=0;exitDy=0;" parent="1" source="jA2UE5slMQ7CVzLZvwPn-138" target="jA2UE5slMQ7CVzLZvwPn-137" edge="1">
                    <mxGeometry relative="1" as="geometry"/>
                </mxCell>
                <mxCell id="jA2UE5slMQ7CVzLZvwPn-140" value="Include" style="edgeLabel;html=1;align=center;verticalAlign=middle;resizable=0;points=[];" parent="jA2UE5slMQ7CVzLZvwPn-139" vertex="1" connectable="0">
                    <mxGeometry x="-0.5086" y="2" relative="1" as="geometry">
                        <mxPoint as="offset"/>
                    </mxGeometry>
                </mxCell>
                <mxCell id="jA2UE5slMQ7CVzLZvwPn-137" value="Buscar Apartamento" style="ellipse;whiteSpace=wrap;html=1;" parent="1" vertex="1">
                    <mxGeometry x="315" y="2130" width="140" height="70" as="geometry"/>
                </mxCell>
                <mxCell id="jA2UE5slMQ7CVzLZvwPn-138" value="Mostar aparta estudios disponibles" style="ellipse;whiteSpace=wrap;html=1;" parent="1" vertex="1">
                    <mxGeometry x="570" y="2120" width="140" height="70" as="geometry"/>
                </mxCell>
                <mxCell id="jA2UE5slMQ7CVzLZvwPn-141" value="Assets" style="childLayout=tableLayout;recursiveResize=0;strokeColor=#98bf21;fillColor=#A7C942;shadow=1;" parent="1" vertex="1">
                    <mxGeometry x="250" y="2240" width="400" height="144" as="geometry"/>
                </mxCell>
                <mxCell id="jA2UE5slMQ7CVzLZvwPn-142" style="shape=tableRow;horizontal=0;startSize=0;swimlaneHead=0;swimlaneBody=0;top=0;left=0;bottom=0;right=0;dropTarget=0;collapsible=0;recursiveResize=0;expand=0;fontStyle=0;strokeColor=inherit;fillColor=#ffffff;" parent="jA2UE5slMQ7CVzLZvwPn-141" vertex="1">
                    <mxGeometry width="400" height="49" as="geometry"/>
                </mxCell>
                <mxCell id="jA2UE5slMQ7CVzLZvwPn-143" value="Actores" style="connectable=0;recursiveResize=0;strokeColor=inherit;fillColor=#A7C942;align=center;fontStyle=1;fontColor=#FFFFFF;html=1;" parent="jA2UE5slMQ7CVzLZvwPn-142" vertex="1">
                    <mxGeometry width="199" height="49" as="geometry">
                        <mxRectangle width="199" height="49" as="alternateBounds"/>
                    </mxGeometry>
                </mxCell>
                <mxCell id="jA2UE5slMQ7CVzLZvwPn-144" value="Sistema" style="connectable=0;recursiveResize=0;strokeColor=inherit;fillColor=#A7C942;align=center;fontStyle=1;fontColor=#FFFFFF;html=1;" parent="jA2UE5slMQ7CVzLZvwPn-142" vertex="1">
                    <mxGeometry x="199" width="201" height="49" as="geometry">
                        <mxRectangle width="201" height="49" as="alternateBounds"/>
                    </mxGeometry>
                </mxCell>
                <mxCell id="jA2UE5slMQ7CVzLZvwPn-145" value="" style="shape=tableRow;horizontal=0;startSize=0;swimlaneHead=0;swimlaneBody=0;top=0;left=0;bottom=0;right=0;dropTarget=0;collapsible=0;recursiveResize=0;expand=0;fontStyle=0;strokeColor=inherit;fillColor=#ffffff;" parent="jA2UE5slMQ7CVzLZvwPn-141" vertex="1">
                    <mxGeometry y="49" width="400" height="48" as="geometry"/>
                </mxCell>
                <mxCell id="jA2UE5slMQ7CVzLZvwPn-146" value="El cliente va en la seccion de buscar un aparta estudio" style="connectable=0;recursiveResize=0;strokeColor=inherit;fillColor=inherit;align=center;whiteSpace=wrap;html=1;" parent="jA2UE5slMQ7CVzLZvwPn-145" vertex="1">
                    <mxGeometry width="199" height="48" as="geometry">
                        <mxRectangle width="199" height="48" as="alternateBounds"/>
                    </mxGeometry>
                </mxCell>
                <mxCell id="jA2UE5slMQ7CVzLZvwPn-147" value="" style="connectable=0;recursiveResize=0;strokeColor=inherit;fillColor=inherit;align=center;whiteSpace=wrap;html=1;" parent="jA2UE5slMQ7CVzLZvwPn-145" vertex="1">
                    <mxGeometry x="199" width="201" height="48" as="geometry">
                        <mxRectangle width="201" height="48" as="alternateBounds"/>
                    </mxGeometry>
                </mxCell>
                <mxCell id="jA2UE5slMQ7CVzLZvwPn-148" value="" style="shape=tableRow;horizontal=0;startSize=0;swimlaneHead=0;swimlaneBody=0;top=0;left=0;bottom=0;right=0;dropTarget=0;collapsible=0;recursiveResize=0;expand=0;fontStyle=1;strokeColor=inherit;fillColor=#EAF2D3;" parent="jA2UE5slMQ7CVzLZvwPn-141" vertex="1">
                    <mxGeometry y="97" width="400" height="47" as="geometry"/>
                </mxCell>
                <mxCell id="jA2UE5slMQ7CVzLZvwPn-149" value="" style="connectable=0;recursiveResize=0;strokeColor=inherit;fillColor=inherit;whiteSpace=wrap;html=1;" parent="jA2UE5slMQ7CVzLZvwPn-148" vertex="1">
                    <mxGeometry width="199" height="47" as="geometry">
                        <mxRectangle width="199" height="47" as="alternateBounds"/>
                    </mxGeometry>
                </mxCell>
                <mxCell id="jA2UE5slMQ7CVzLZvwPn-150" value="El sistema muestra la lista de aparta estudios con sus informaciones y reviews" style="connectable=0;recursiveResize=0;strokeColor=inherit;fillColor=inherit;whiteSpace=wrap;html=1;" parent="jA2UE5slMQ7CVzLZvwPn-148" vertex="1">
                    <mxGeometry x="199" width="201" height="47" as="geometry">
                        <mxRectangle width="201" height="47" as="alternateBounds"/>
                    </mxGeometry>
                </mxCell>
            </root>
        </mxGraphModel>
    </diagram>
</mxfile>